<?xml version="1.0" encoding="UTF-8"?>
<svg id="Layer_2" data-name="Layer 2" xmlns="http://www.w3.org/2000/svg" xmlns:xlink="http://www.w3.org/1999/xlink" viewBox="0 0 216 217.5">
  <defs>
    <style>
      .cls-1 {
        fill: none;
      }

      .cls-1, .cls-2, .cls-3 {
        stroke-width: 0px;
      }

      .cls-2 {
        fill: url(#radial-gradient);
      }

      .cls-3 {
        fill: #edf2f9;
      }
    </style>
    <radialGradient id="radial-gradient" cx="166.73" cy="27.83" fx="166.73" fy="27.83" r="138.03" gradientUnits="userSpaceOnUse">
      <stop offset=".16" stop-color="#b7d3f3"/>
      <stop offset=".64" stop-color="#6944db"/>
    </radialGradient>
  </defs>
  <g id="Layer_1-2" data-name="Layer 1">
    <g>
      <rect class="cls-1" width="216" height="217.5"/>
      <g>
        <path class="cls-2" d="M108,36.55C48.4,36.55.09,108.75.09,108.75c0,0,48.31,72.2,107.91,72.2s107.91-72.2,107.91-72.2c0,0-48.31-72.2-107.91-72.2Z"/>
        <path class="cls-3" d="M163.03,94.03s0,.03.01.05h0c.08.3.15.55.19.68-9.27,2.52-18.59,4.92-27.77,7.19l-.51.13-.14-.5c-.1-.35-.38-1.4-.47-1.74l.47-.14s27.49-8.18,27.53-8.2c.11.39.46,1.67.69,2.53Z"/>
        <path class="cls-3" d="M159.39,84.15s.02.03.02.04h0c.14.28.25.51.31.63-8.64,4.19-17.36,8.29-25.95,12.21l-.48.22-.23-.47c-.16-.33-.64-1.31-.79-1.62l.44-.22s25.5-13.14,25.53-13.16c.18.36.76,1.56,1.15,2.36Z"/>
        <path class="cls-3" d="M153.98,75.12s.02.02.03.04h0c.19.25.34.46.42.56-7.86,5.83-15.81,11.55-23.68,17.1-.21-.27-.87-1.17-1.08-1.46l-.31-.42.39-.3s22.64-17.61,22.67-17.63c.24.32,1.03,1.39,1.56,2.11Z"/>
        <path class="cls-3" d="M147.02,67.26s.02.02.03.03h0c.23.21.42.39.52.48-6.54,7.03-13.19,14-19.78,20.77l-.37.38-.38-.36c-.27-.25-1.07-1-1.33-1.23l.33-.37s19.04-21.45,19.07-21.48c.3.27,1.27,1.18,1.92,1.79Z"/>
        <path class="cls-3" d="M138.74,60.8s.03.02.05.03h0c.27.17.48.31.59.38-5.14,8.11-10.41,16.17-15.65,24.03l-.29.44-.44-.28c-.31-.19-1.23-.78-1.52-.97l.25-.42s14.79-24.57,14.81-24.61c.34.21,1.45.92,2.21,1.4Z"/>
        <path class="cls-3" d="M129.42,55.96s.03.01.05.02h0c.29.12.53.21.65.26-3.64,9.09-7.4,18.13-11.19,26.98-.32-.12-1.34-.54-1.67-.67l-.48-.19.17-.46s10.02-26.88,10.03-26.91c.37.15,1.61.64,2.43.97Z"/>
        <path class="cls-3" d="M98.42,52.13l.47-.08.07.47,4.3,28.35.13.86c-.64.28-1.51.39-2.19.52l-.18-.92-5.6-28.13-.1-.52c.27-.04,2.76-.49,3.1-.54Z"/>
        <path class="cls-3" d="M88.17,54.85l.45-.17.16.45,9.46,27.07h0s.29.82.29.82c-.58.4-1.41.66-2.05.91l-.35-.87-10.7-26.61-.2-.49c.26-.09,2.63-.99,2.96-1.11Z"/>
        <path class="cls-3" d="M79,59.17l.24.41,14.29,24.85h0s.43.76.43.76c-.49.49-1.25.9-1.84,1.27l-.51-.79-15.46-24.16-.29-.45c.58-.35,2.54-1.54,3.12-1.89Z"/>
        <path class="cls-3" d="M70.03,65.67l.35-.32.31.36,18.62,21.81.56.66c-.39.58-1.07,1.12-1.58,1.59l-.64-.69-19.62-20.92-.36-.39c.21-.18,2.1-1.88,2.36-2.11Z"/>
        <path class="cls-3" d="M62.77,73.37l.29-.38.37.3,22.29,18.05.67.55c-.28.64-.85,1.31-1.27,1.86l-.76-.56-23.1-17-.43-.31c.17-.22,1.71-2.22,1.93-2.49Z"/>
        <path class="cls-3" d="M57.04,82.26l.22-.42.41.22,25.21,13.66h0s.76.41.76.41c-.16.68-.59,1.43-.9,2.05l-.85-.41-25.82-12.48-.48-.23c.13-.25,1.28-2.5,1.44-2.81Z"/>
        <path class="cls-3" d="M53.04,92.08l.13-.46.45.14,27.3,8.77h0s.83.27.83.27c-.03.7-.32,1.52-.51,2.19l-.91-.25-27.68-7.5-.51-.14c.08-.26.79-2.69.9-3.03Z"/>
        <path class="cls-3" d="M50.91,102.47l.05-.47.47.06,28.45,3.57h0s.86.11.86.11c.1.69-.03,1.55-.09,2.24l-.94-.07-28.59-2.25-.53-.04c.03-.27.28-2.8.32-3.14Z"/>
        <path class="cls-3" d="M50.99,116.19c-.06-.68-.24-2.91-.29-3.6l.47-.03s28.48-1.71,28.62-1.71h0s0,0,0,0v.05s1-.08,1-.08c.03.55.15,1.68.18,2.23l-.94.1-28.52,2.99-.53.06Z"/>
        <path class="cls-3" d="M53.3,126.55l-.14-.5c-.11-.34-.74-2.77-.83-3.04l.48-.12,27.84-6.87h.02s0,.02,0,.02c.12.44.41,1.51.53,1.94-9.13,2.93-18.33,5.75-27.38,8.43l-.53.16Z"/>
        <path class="cls-3" d="M57.52,136.32l-.23-.47c-.17-.31-1.24-2.59-1.38-2.84l.45-.2,26.09-11.92h.02s0,.01,0,.01c.13.26.36.75.57,1.18,0,0,0,0,0,0,.12.25.24.49.31.63-8.43,4.57-16.95,9.05-25.34,13.36l-.49.25Z"/>
        <path class="cls-3" d="M63.45,145.13l-.31-.42c-.22-.28-1.69-2.3-1.87-2.53l.4-.28,23.44-16.53h.02s.01,0,.01,0c.27.37.94,1.27,1.2,1.62-7.45,6.05-14.99,12.01-22.45,17.79l-.44.34Z"/>
        <path class="cls-3" d="M70.89,152.68l-.38-.36c-.27-.23-2.08-1.95-2.3-2.14l.34-.35,20.01-20.54.02-.02h.02c.21.21.61.59.97.92,0,0,0,0,0,0,.2.19.4.37.51.48-6.22,7.31-12.55,14.55-18.82,21.6l-.37.41Z"/>
        <path class="cls-3" d="M79.58,158.75l-.44-.28c-.31-.18-2.41-1.54-2.66-1.69l.27-.41,15.93-23.85v-.02s.03.01.03.01c.24.15.7.44,1.1.7h0c.23.15.46.29.59.38-4.77,8.32-9.66,16.61-14.54,24.68l-.29.47Z"/>
        <path class="cls-3" d="M89.24,163.13l-.49-.19c-.34-.12-2.65-1.08-2.92-1.17l.19-.45,11.29-26.37v-.02s.03,0,.03,0c.26.11.77.31,1.2.48,0,0,0,0,0,0,.26.1.5.2.65.26-3.16,9.06-6.45,18.1-9.76,26.93l-.19.52Z"/>
        <path class="cls-3" d="M99.66,165.11l-.1.54-.51-.1c-.35-.05-2.81-.57-3.09-.61l.11-.48,6.21-28v-.02s.03,0,.03,0c.28.05.81.16,1.28.25,0,0,0,0,0,0,.28.05.53.1.69.14-1.43,9.48-2.99,18.98-4.61,28.27Z"/>
        <path class="cls-3" d="M108.9,51.8s.03,0,.05,0h0c.31,0,.57,0,.7,0-.09,9.6-.31,19.23-.62,28.67l-.02.53h-.52c-.36,0-1.46-.02-1.81-.02v-.49s-.4-28.68-.4-28.72c.4,0,1.73.02,2.62.02Z"/>
        <path class="cls-3" d="M109.64,166.22c-.36.01-2.87-.04-3.15-.03l.02-.49.95-28.66v-.02s.02,0,.02,0c.29,0,.83,0,1.3.01h0c.28,0,.54,0,.7,0,.34,9.59.56,19.2.67,28.64v.55s-.52,0-.52,0Z"/>
        <path class="cls-3" d="M111.89,80.72s4.88-28.27,4.88-28.31c.4.07,1.71.34,2.58.51.02,0,.03,0,.05,0h0c.31.06.56.11.69.14-1.86,9.42-3.86,18.84-5.9,28.07l-.11.52-.51-.1c-.36-.07-1.42-.28-1.76-.35l.08-.48Z"/>
        <path class="cls-3" d="M116.64,166.02l-.14-.94-4.27-28.36-.07-.48c.31-.06,1.42-.24,1.75-.3l.47-.08.09.44,5.55,28.14.15.77c-1.12.4-2.35.66-3.52.82Z"/>
        <path class="cls-3" d="M127.03,163.46l-.31-.9-9.42-27.09-.16-.46.45-.17c.32-.12,1.35-.5,1.65-.62l.17.42,10.67,26.62.29.73c-1.03.6-2.2,1.09-3.33,1.46Z"/>
        <path class="cls-3" d="M136.77,159.03l-.47-.83-14.26-24.88-.24-.42.41-.25c.29-.18,1.23-.74,1.5-.91l.24.38,15.42,24.18.42.66c-.9.78-1.97,1.48-3.01,2.06Z"/>
        <path class="cls-3" d="M145.52,152.88l-.62-.72-18.6-21.83-.31-.37c.23-.21,1.07-.95,1.32-1.18l.36-.32.31.33,19.58,20.95.53.57c-.74.93-1.66,1.81-2.57,2.57Z"/>
        <path class="cls-3" d="M152.98,145.24l-.74-.6-22.28-18.06-.38-.31c.19-.25.88-1.13,1.08-1.4l.29-.38.36.27,23.08,17.02.63.46c-.56,1.05-1.3,2.08-2.05,2.99Z"/>
        <path class="cls-3" d="M158.91,136.38l-.84-.45-25.2-13.68-.43-.23c.14-.28.66-1.27.81-1.57l.22-.42.4.2,25.81,12.51.7.34c-.36,1.13-.9,2.28-1.47,3.31Z"/>
        <path class="cls-3" d="M163.13,126.56l-.91-.29-27.29-8.81-.46-.15c.09-.3.41-1.37.5-1.69l.14-.46.43.12,27.67,7.53h0s.75.21.75.21c-.14,1.18-.46,2.41-.84,3.54Z"/>
        <path class="cls-3" d="M165.46,116.11l-.94-.12-28.45-3.61-.48-.06c.03-.32.15-1.41.18-1.75l.05-.47.45.04,28.59,2.27.78.06c.08,1.19,0,2.46-.17,3.64Z"/>
        <path class="cls-3" d="M164.88,105.51l-28.63,1.71-.53.03c-.03-.34-.12-1.54-.15-1.91l-.04-.52.49-.05s28.52-3.01,28.57-3.01v.04s.08.94.14,1.71h0s0,0,0,0c.03.4.07.88.07.89,0,0,0,0,0,0l1-.08v.09s.07,1.01.07,1.01l-.98.06Z"/>
      </g>
    </g>
  </g>
</svg>