<?xml version="1.0" encoding="UTF-8"?>
<svg id="Layer_2" data-name="Layer 2" xmlns="http://www.w3.org/2000/svg" xmlns:xlink="http://www.w3.org/1999/xlink" viewBox="0 0 214.76 151.46">
  <defs>
    <style>
      .cls-1 {
        fill: url(#linear-gradient);
      }

      .cls-1, .cls-2, .cls-3 {
        stroke-width: 0px;
      }

      .cls-2 {
        fill: url(#radial-gradient);
      }

      .cls-3 {
        fill: #94beec;
      }
    </style>
    <linearGradient id="linear-gradient" x1="0" y1="75.73" x2="214.76" y2="75.73" gradientUnits="userSpaceOnUse">
      <stop offset=".66" stop-color="#696bdb"/>
      <stop offset=".94" stop-color="#b7d3f3"/>
    </linearGradient>
    <radialGradient id="radial-gradient" cx="121.64" cy="44.2" fx="121.64" fy="44.2" r="37.52" gradientUnits="userSpaceOnUse">
      <stop offset=".68" stop-color="#b7d3f3"/>
      <stop offset="1" stop-color="#6944db"/>
    </radialGradient>
  </defs>
  <g id="Layer_1-2" data-name="Layer 1">
    <g>
      <g>
        <path class="cls-3" d="M107.87,40.39l.32-20.31c-.85-.01-1.71,0-2.56.02l.61,20.3c.34,0,.68-.03,1.03-.03.2,0,.4.01.6.02Z"/>
        <path class="cls-3" d="M98,20.85c-.84.14-1.69.3-2.51.48l4.29,19.85c.53-.11,1.06-.22,1.6-.31l-3.38-20.03Z"/>
        <path class="cls-3" d="M118.39,21.19c-.84-.17-1.69-.32-2.53-.46l-3.13,20.07c.54.08,1.07.18,1.6.29l4.06-19.9Z"/>
        <path class="cls-3" d="M88.09,23.48c-.8.29-1.6.61-2.39.94l7.88,18.71c.5-.21,1-.41,1.51-.6l-7.01-19.06Z"/>
        <path class="cls-3" d="M128.2,24.16c-.79-.32-1.59-.63-2.4-.91l-6.78,19.14c.51.18,1.02.37,1.52.58l7.66-18.81Z"/>
        <path class="cls-3" d="M78.83,27.9c-.74.44-1.48.91-2.19,1.38l11.22,16.93c.45-.3.91-.59,1.37-.86l-10.41-17.44Z"/>
        <path class="cls-3" d="M137.28,28.88c-.71-.46-1.45-.91-2.18-1.33l-10.19,17.57c.47.27.93.56,1.39.85l10.98-17.08Z"/>
        <path class="cls-3" d="M70.55,33.95c-.64.57-1.28,1.15-1.89,1.75l14.13,14.59c.39-.38.79-.74,1.19-1.1l-13.44-15.23Z"/>
        <path class="cls-3" d="M145.35,35.18c-.61-.58-1.25-1.15-1.9-1.71l-13.24,15.41c.41.35.82.72,1.21,1.09l13.92-14.79Z"/>
        <path class="cls-3" d="M63.53,41.39c-.52.67-1.04,1.36-1.53,2.05l16.55,11.77c.31-.44.64-.88.97-1.3l-15.99-12.52Z"/>
        <path class="cls-3" d="M152.12,42.85c-.5-.69-1.03-1.37-1.56-2.03l-15.83,12.73c.34.42.67.86.99,1.29l16.39-12Z"/>
        <path class="cls-3" d="M57.99,50c-.39.75-.77,1.53-1.13,2.3l18.43,8.54c.23-.49.47-.98.72-1.46l-18.01-9.38Z"/>
        <path class="cls-3" d="M157.39,51.67c-.37-.77-.76-1.54-1.16-2.29l-17.9,9.6c.26.48.5.96.74,1.45l18.32-8.76Z"/>
        <path class="cls-3" d="M54.12,59.49c-.25.82-.48,1.65-.69,2.47l19.68,4.99c.13-.53.28-1.05.44-1.57l-19.43-5.89Z"/>
        <path class="cls-3" d="M160.94,61.31c-.22-.82-.46-1.65-.72-2.46l-19.37,6.11c.16.52.31,1.04.45,1.56l19.63-5.21Z"/>
        <path class="cls-3" d="M52.06,69.54c-.09.84-.17,1.7-.22,2.56l20.27,1.27c.03-.54.08-1.08.14-1.62l-20.19-2.2Z"/>
        <path class="cls-3" d="M162.65,71.48v-.09c-.07-.84-.16-1.7-.26-2.54l-20.16,2.46c.07.57.12,1.14.17,1.72l20.25-1.54Z"/>
        <path class="cls-3" d="M51.89,79.78v.05c.07.83.15,1.66.25,2.48l20.16-2.44c-.06-.54-.12-1.08-.16-1.63l-20.25,1.54Z"/>
        <path class="cls-3" d="M162.47,81.74c.09-.85.17-1.71.22-2.56l-20.28-1.28c-.03.54-.08,1.08-.14,1.62l20.19,2.23Z"/>
        <path class="cls-3" d="M53.59,89.85c.22.82.46,1.65.71,2.47l19.37-6.09c-.16-.52-.31-1.04-.45-1.56l-19.63,5.19Z"/>
        <path class="cls-3" d="M160.41,91.79c.25-.82.48-1.65.69-2.47l-19.68-5.01c-.13.53-.28,1.05-.44,1.57l19.43,5.92Z"/>
        <path class="cls-3" d="M57.12,99.5c.37.77.76,1.54,1.16,2.29l17.91-9.58c-.26-.48-.5-.96-.74-1.45l-18.33,8.74Z"/>
        <path class="cls-3" d="M156.53,101.28c.39-.75.77-1.52,1.13-2.29l-18.42-8.56c-.23.49-.47.98-.72,1.46l18.01,9.4Z"/>
        <path class="cls-3" d="M62.38,108.32c.5.68,1.02,1.37,1.56,2.03l15.84-12.71c-.34-.42-.67-.86-.99-1.3l-16.41,11.97Z"/>
        <path class="cls-3" d="M150.98,109.87c.53-.67,1.04-1.36,1.53-2.05l-16.54-11.79c-.32.44-.64.88-.98,1.3l15.98,12.53Z"/>
        <path class="cls-3" d="M69.15,116c.61.58,1.25,1.15,1.89,1.71l13.25-15.39c-.41-.36-.82-.72-1.21-1.09l-13.93,14.78Z"/>
        <path class="cls-3" d="M143.95,117.31c.64-.56,1.27-1.15,1.88-1.74l-14.11-14.61c-.39.38-.79.75-1.2,1.1l13.42,15.25Z"/>
        <path class="cls-3" d="M77.2,122.31c.71.46,1.45.91,2.19,1.34l10.21-17.56c-.47-.27-.93-.56-1.39-.85l-11.01,17.07Z"/>
        <path class="cls-3" d="M135.66,123.35c.73-.44,1.47-.9,2.19-1.37l-11.2-16.95c-.45.3-.91.59-1.38.86l10.39,17.46Z"/>
        <path class="cls-3" d="M86.28,127.04c.79.32,1.59.63,2.39.91l6.81-19.13c-.51-.18-1.02-.38-1.52-.58l-7.69,18.8Z"/>
        <path class="cls-3" d="M126.39,127.76c.8-.29,1.6-.61,2.39-.94l-7.86-18.72c-.5.21-1,.41-1.51.6l6.98,19.07Z"/>
        <path class="cls-3" d="M96.1,130.02c.84.17,1.69.32,2.52.46l3.15-20.06c-.54-.08-1.07-.18-1.6-.29l-4.07,19.89Z"/>
        <path class="cls-3" d="M116.48,130.38c.83-.14,1.67-.3,2.5-.48l-4.25-19.86c-.53.11-1.07.22-1.6.31l3.35,20.03Z"/>
        <path class="cls-3" d="M106.63,110.83l-.34,20.31c.85.01,1.72,0,2.57-.02l-.6-20.3c-.33,0-.66.02-.99.02-.21,0-.42-.01-.64-.02Z"/>
      </g>
      <path class="cls-1" d="M214.76,76.37c-.09.41-.41.86-.59,1.23-2.54,4.5-5.38,8.85-8.37,13.06-12.96,18.08-28.9,34.38-47.88,46.16-40.25,24.86-74.66,16.12-110.11-11.82C29.94,110.87,13.84,94.65,0,76.53,15.19,52.13,35.11,30.45,59.61,15.18c33.07-20.43,65.59-20.23,98.43.53,18.86,12.06,34.64,28.37,47.67,46.44,3,4.2,5.86,8.53,8.44,13,0,0,.26.45.26.45.11.23.32.49.35.77h0ZM213.62,76.37c-.06.04-.06.12-.06.12,0,0-.16-.2-.16-.2-.11-.13-.83-1-.98-1.17-17.16-19.65-36.61-37.99-59.53-50.69-13.45-7.45-28.5-12.44-43.91-12.4-31.82.64-59.07,20.67-81.12,42.18-3.67,3.67-7.71,7.74-11.18,11.59-3.59,3.97-7.15,8.12-10.33,12.29v-3.46c5.63,9.01,12.42,17.78,19.6,25.69,21.07,23.41,50.52,42.75,83.03,41.7,37.65-1.93,68.45-27.99,93.75-53.9,3.47-3.59,7.04-7.53,10.33-11.31,0,0,.33-.39.33-.39l.17-.19s0,.09.07.12h0Z"/>
      <circle class="cls-2" cx="107.27" cy="75.61" r="25.63"/>
    </g>
  </g>
</svg>