<?xml version="1.0" encoding="UTF-8"?>
<svg id="Layer_2" data-name="Layer 2" xmlns="http://www.w3.org/2000/svg" xmlns:xlink="http://www.w3.org/1999/xlink" viewBox="0 0 216 217.5">
  <defs>
    <style>
      .cls-1 {
        fill: none;
      }

      .cls-1, .cls-2, .cls-3, .cls-4, .cls-5, .cls-6 {
        stroke-width: 0px;
      }

      .cls-2 {
        fill: url(#radial-gradient);
      }

      .cls-3 {
        fill: #78aae0;
      }

      .cls-4 {
        fill: url(#radial-gradient-2);
      }

      .cls-5 {
        fill: url(#radial-gradient-3);
      }

      .cls-6 {
        fill: #edf2f9;
      }
    </style>
    <radialGradient id="radial-gradient" cx="137.75" cy="56.19" fx="137.75" fy="56.19" r="169.2" gradientUnits="userSpaceOnUse">
      <stop offset=".15" stop-color="#b7d3f3"/>
      <stop offset=".46" stop-color="#6944db"/>
    </radialGradient>
    <radialGradient id="radial-gradient-2" cx="40.8" cy="-13.64" fx="40.8" fy="-13.64" r="251.3" gradientUnits="userSpaceOnUse">
      <stop offset=".32" stop-color="#b7d3f3"/>
      <stop offset=".56" stop-color="#6944db"/>
    </radialGradient>
    <radialGradient id="radial-gradient-3" cx="137.75" cy="56.19" fx="137.75" fy="56.19" r="169.2" xlink:href="#radial-gradient-2"/>
  </defs>
  <g id="Layer_1-2" data-name="Layer 1">
    <g>
      <rect class="cls-1" width="216" height="217.5"/>
      <g>
        <path class="cls-2" d="M166.05,78.44c-8.73,5.92-18.51,12.02-27.61,17.41-4.66,2.75-8.94,6.29-14.14,8.03-5.34,1.87-10.7,3.21-16.55,3.09-.44,0-.71-.55-.44-.9,1.8-2.48,3.84-4.46,5.96-6.29,4.22-3.55,8.74-6.61,13.95-8.4,4.51-1.45,10.83-3.9,15.29-5.67,7.42-2.75,15.59-5.75,23.1-8.16.52-.17.93.57.44.9h0Z"/>
        <path class="cls-4" d="M33.31,69.45c12.67,4.92,26.36,10.71,38.81,16.25,3.19,1.43,6.49,2.67,9.74,4,4.18,1.69,8.07,3.89,11.78,6.39,3.44-4.06,8.57-6.65,14.31-6.65h0V5.96s-.09,0-.14,0C51.36,5.96,5.59,51.73,5.59,108.18s45.76,102.22,102.21,102.22c.05,0,.09,0,.14,0v-83.47h0c-10.35,0-18.74-8.39-18.74-18.74,0-1.24.13-2.45.36-3.63-4.28-1.62-8.41-3.57-12.27-6.08-5.06-3.4-12.54-7.94-17.85-11.12-8.65-5.39-18.16-11.36-26.59-17.02-.23-.16-.29-.47-.14-.7.13-.2.38-.27.6-.19Z"/>
        <path class="cls-6" d="M76.56,150.71l1.58,4.34c.05.15.17.27.32.32l4.32,1.62c.47.18.47.85,0,1.02l-4.34,1.58c-.15.05-.27.17-.32.32l-1.62,4.32c-.18.47-.85.47-1.02,0l-1.58-4.34c-.05-.15-.17-.27-.32-.32l-4.32-1.62c-.47-.18-.47-.85,0-1.02l4.34-1.58c.15-.05.27-.17.32-.32l1.62-4.32c.18-.47.85-.47,1.02,0Z"/>
        <path class="cls-6" d="M39.57,135.98l11.94-4.36,4.47-11.9c.51-1.37,2.45-1.36,2.96.01l4.36,11.94,11.9,4.47c1.37.51,1.36,2.45-.01,2.96l-11.94,4.36-4.47,11.9c-.51,1.37-2.45,1.36-2.96-.01l-4.36-11.94-11.9-4.47c-1.37-.51-1.36-2.45.01-2.96Z"/>
        <circle class="cls-5" cx="108.18" cy="108.22" r="13.09"/>
        <g>
          <path class="cls-3" d="M125.59,5.88c1.55.26,3.11.56,4.63.89l-5.26,24.34c-1.16-.23-2.34-.43-3.52-.6l4.15-24.63Z"/>
          <path class="cls-3" d="M143.85,10.73c1.47.54,2.95,1.13,4.4,1.73l-9.57,22.7c-1.11-.45-2.23-.86-3.36-1.26l8.53-23.18Z"/>
          <path class="cls-3" d="M160.91,18.87c1.37.82,2.72,1.67,4.03,2.53l-13.5,20.37c-1.01-.65-2.03-1.28-3.07-1.88l12.55-21.02Z"/>
          <path class="cls-3" d="M176.16,30c1.18,1.04,2.35,2.13,3.48,3.21l-16.91,17.45c-.87-.83-1.76-1.64-2.66-2.43l16.1-18.24Z"/>
          <path class="cls-3" d="M189.08,43.71c.96,1.23,1.91,2.5,2.82,3.78l-19.76,14.05c-.7-.98-1.42-1.94-2.16-2.88l19.1-14.95Z"/>
          <path class="cls-3" d="M199.28,59.56c.72,1.38,1.42,2.81,2.08,4.24l-22.02,10.2c-.5-1.09-1.02-2.17-1.57-3.24l21.51-11.21Z"/>
          <path class="cls-3" d="M206.42,77.04c.46,1.5.88,3.03,1.27,4.55l-23.63,5.99c-.28-1.17-.59-2.33-.93-3.48l23.3-7.07Z"/>
          <path class="cls-3" d="M210.2,95.55c.17,1.55.31,3.14.4,4.71l-24.51,1.53c-.06-1.2-.15-2.4-.26-3.58l24.37-2.66Z"/>
          <path class="cls-3" d="M210.51,114.42v.09c-.12,1.53-.27,3.07-.46,4.57l-24.61-2.98c.16-1.18.3-2.36.41-3.56l24.65,1.88Z"/>
          <path class="cls-3" d="M207.39,132.96c-.4,1.51-.84,3.04-1.31,4.54l-23.94-7.52c.38-1.12.74-2.26,1.07-3.4l24.18,6.39Z"/>
          <path class="cls-3" d="M200.88,150.72c-.67,1.42-1.39,2.84-2.14,4.22l-22.44-12c.59-1.03,1.15-2.07,1.69-3.13l22.89,10.91Z"/>
          <path class="cls-3" d="M191.2,166.96c-.92,1.26-1.88,2.52-2.86,3.74l-20.15-16.16c.76-.9,1.51-1.81,2.23-2.75l20.79,15.17Z"/>
          <path class="cls-3" d="M178.72,181.11c-1.13,1.07-2.3,2.12-3.49,3.14l-17.12-19.87c.91-.74,1.8-1.5,2.68-2.28l17.93,19.01Z"/>
          <path class="cls-3" d="M163.9,192.73c-1.31.85-2.67,1.68-4.03,2.47l-13.38-23.03c1.03-.56,2.04-1.14,3.03-1.74l14.38,22.3Z"/>
          <path class="cls-3" d="M147.17,201.44c-1.45.59-2.93,1.16-4.41,1.68l-9.07-25.49c1.1-.36,2.2-.74,3.28-1.14l10.2,24.94Z"/>
          <path class="cls-3" d="M129.09,206.94c-1.54.32-3.11.6-4.65.84l-4.25-27.11c1.15-.15,2.29-.32,3.42-.52l5.48,26.79Z"/>
        </g>
      </g>
    </g>
  </g>
</svg>