<?xml version="1.0" encoding="UTF-8"?>
<svg id="Layer_2" data-name="Layer 2" xmlns="http://www.w3.org/2000/svg" xmlns:xlink="http://www.w3.org/1999/xlink" viewBox="0 0 216 217.5">
  <defs>
    <style>
      .cls-1 {
        fill: none;
      }

      .cls-1, .cls-2, .cls-3, .cls-4, .cls-5, .cls-6 {
        stroke-width: 0px;
      }

      .cls-2 {
        fill: url(#radial-gradient);
      }

      .cls-3 {
        fill: #78aae0;
      }

      .cls-4 {
        fill: url(#radial-gradient-2);
      }

      .cls-5 {
        fill: url(#radial-gradient-3);
      }

      .cls-6 {
        fill: url(#radial-gradient-4);
      }
    </style>
    <radialGradient id="radial-gradient" cx="91.94" cy="53.22" fx="91.94" fy="53.22" r="163.44" gradientUnits="userSpaceOnUse">
      <stop offset=".32" stop-color="#b7d3f3"/>
      <stop offset=".56" stop-color="#6944db"/>
    </radialGradient>
    <radialGradient id="radial-gradient-2" cx="140.37" cy="122.6" fx="140.37" fy="122.6" r="96.87" xlink:href="#radial-gradient"/>
    <radialGradient id="radial-gradient-3" cx="221.13" cy="188.47" fx="221.13" fy="188.47" r="238.08" gradientUnits="userSpaceOnUse">
      <stop offset=".2" stop-color="#b7d3f3"/>
      <stop offset=".44" stop-color="#6944db"/>
    </radialGradient>
    <radialGradient id="radial-gradient-4" cx="46.12" cy="108.2" fx="46.12" fy="108.2" r="146.93" gradientUnits="userSpaceOnUse">
      <stop offset=".32" stop-color="#edf2f9"/>
      <stop offset=".56" stop-color="#696bdb"/>
    </radialGradient>
  </defs>
  <g id="Layer_1-2" data-name="Layer 1">
    <g>
      <rect class="cls-1" width="216" height="217.5"/>
      <g>
        <path class="cls-2" d="M33.31,70.41c12.67,4.92,26.36,10.71,38.81,16.25,3.19,1.43,6.49,2.67,9.74,4,6.55,2.64,12.41,6.54,17.95,10.93,2.77,2.25,5.46,4.64,7.9,7.53.31.35,0,.95-.46.89-3.76-.34-7.27-1.17-10.7-2.15-6.78-2.01-13.32-4.57-19.25-8.42-5.06-3.4-12.54-7.94-17.85-11.12-8.65-5.39-18.16-11.36-26.59-17.02-.23-.16-.29-.47-.14-.7.13-.2.38-.27.6-.19h0Z"/>
        <circle class="cls-4" cx="108.18" cy="109.19" r="13.09"/>
        <g>
          <path class="cls-5" d="M108.39,6.93s-.09,0-.14,0v83.49c4.8.08,9.15,1.96,12.42,5,2.07-1.22,4.24-2.28,6.54-3.07,4.51-1.45,10.83-3.9,15.29-5.67,7.42-2.75,15.59-5.75,23.1-8.16.52-.17.93.57.44.9-8.73,5.92-18.51,12.02-27.61,17.41-4.13,2.45-7.98,5.5-12.43,7.38.43,1.58.68,3.24.68,4.95,0,10.25-8.23,18.56-18.43,18.73v83.49s.09,0,.14,0c56.45,0,102.22-45.76,102.22-102.22S164.84,6.93,108.39,6.93Z"/>
          <path class="cls-6" d="M84.62,159.3l-1.55-4.25c-.06-.16-.18-.28-.34-.34l-4.24-1.59c-.5-.19-.5-.89,0-1.08l4.25-1.55c.16-.06.28-.18.34-.34l1.59-4.24c.19-.5.89-.5,1.08,0l1.55,4.25c.06.16.18.28.34.34l4.24,1.59c.5.19.5.89,0,1.08l-4.25,1.55c-.16.06-.28.18-.34.34l-1.59,4.24c-.19.5-.89.5-1.08,0Z"/>
          <path class="cls-6" d="M64.9,150.26l-4.28-11.73-11.69-4.39c-1.44-.54-1.43-2.58.01-3.11l11.73-4.28,4.39-11.69c.54-1.44,2.58-1.43,3.11.01l4.28,11.73,11.69,4.39c1.44.54,1.43,2.58-.01,3.11l-11.73,4.28-4.39,11.69c-.54,1.44-2.58,1.43-3.11-.01Z"/>
        </g>
        <g>
          <path class="cls-3" d="M90.6,6.85c-1.55.26-3.11.56-4.63.89l5.26,24.34c1.16-.23,2.34-.43,3.52-.6l-4.15-24.63Z"/>
          <path class="cls-3" d="M72.35,11.69c-1.47.54-2.95,1.13-4.4,1.73l9.57,22.7c1.11-.45,2.23-.86,3.36-1.26l-8.53-23.18Z"/>
          <path class="cls-3" d="M55.29,19.83c-1.37.82-2.72,1.67-4.03,2.53l13.5,20.37c1.01-.65,2.03-1.28,3.07-1.88l-12.55-21.02Z"/>
          <path class="cls-3" d="M40.04,30.97c-1.18,1.04-2.35,2.13-3.48,3.21l16.91,17.45c.87-.83,1.76-1.64,2.66-2.43l-16.1-18.24Z"/>
          <path class="cls-3" d="M27.12,44.68c-.96,1.23-1.91,2.5-2.82,3.78l19.76,14.05c.7-.98,1.42-1.94,2.16-2.88l-19.1-14.95Z"/>
          <path class="cls-3" d="M16.92,60.52c-.72,1.38-1.42,2.81-2.08,4.24l22.02,10.2c.5-1.09,1.02-2.17,1.57-3.24l-21.51-11.21Z"/>
          <path class="cls-3" d="M9.78,78.01c-.46,1.5-.88,3.03-1.27,4.55l23.63,5.99c.28-1.17.59-2.33.93-3.48l-23.3-7.07Z"/>
          <path class="cls-3" d="M6,96.52c-.17,1.55-.31,3.14-.4,4.71l24.51,1.53c.06-1.2.15-2.4.26-3.58l-24.37-2.66Z"/>
          <path class="cls-3" d="M5.69,115.38v.09c.12,1.53.27,3.07.46,4.57l24.61-2.98c-.16-1.18-.3-2.36-.41-3.56l-24.65,1.88Z"/>
          <path class="cls-3" d="M8.8,133.93c.4,1.51.84,3.04,1.31,4.54l23.94-7.52c-.38-1.12-.74-2.26-1.07-3.4l-24.18,6.39Z"/>
          <path class="cls-3" d="M15.32,151.69c.67,1.42,1.39,2.84,2.14,4.22l22.44-12c-.59-1.03-1.15-2.07-1.69-3.13l-22.89,10.91Z"/>
          <path class="cls-3" d="M25,167.93c.92,1.26,1.88,2.52,2.86,3.74l20.15-16.16c-.76-.9-1.51-1.81-2.23-2.75l-20.79,15.17Z"/>
          <path class="cls-3" d="M37.48,182.08c1.13,1.07,2.3,2.12,3.49,3.14l17.12-19.87c-.91-.74-1.8-1.5-2.68-2.28l-17.93,19.01Z"/>
          <path class="cls-3" d="M52.3,193.69c1.31.85,2.67,1.68,4.03,2.47l13.38-23.03c-1.03-.56-2.04-1.14-3.03-1.74l-14.38,22.3Z"/>
          <path class="cls-3" d="M69.02,202.41c1.45.59,2.93,1.16,4.41,1.68l9.07-25.49c-1.1-.36-2.2-.74-3.28-1.14l-10.2,24.94Z"/>
          <path class="cls-3" d="M87.11,207.9c1.54.32,3.11.6,4.65.84l4.25-27.11c-1.15-.15-2.29-.32-3.42-.52l-5.48,26.79Z"/>
        </g>
      </g>
    </g>
  </g>
</svg>