<?xml version="1.0" encoding="UTF-8"?>
<svg id="Layer_2" data-name="Layer 2" xmlns="http://www.w3.org/2000/svg" xmlns:xlink="http://www.w3.org/1999/xlink" viewBox="0 0 216 217.92">
  <defs>
    <style>
      .cls-1 {
        fill: #4c92e0;
      }

      .cls-1, .cls-2, .cls-3 {
        stroke-width: 0px;
      }

      .cls-2 {
        fill: none;
      }

      .cls-3 {
        fill: url(#radial-gradient);
      }
    </style>
    <radialGradient id="radial-gradient" cx="125.97" cy="153.78" fx="125.97" fy="153.78" r="98.84" gradientUnits="userSpaceOnUse">
      <stop offset=".47" stop-color="#b7d3f3"/>
      <stop offset=".77" stop-color="#6944db"/>
    </radialGradient>
  </defs>
  <g id="Layer_1-2" data-name="Layer 1">
    <g>
      <g>
        <g>
          <path class="cls-1" d="M109.32.01l-.71,45.35c-.69-.01-1.39,0-2.08.01L105.17.04c1.38-.04,2.77-.05,4.15-.03Z"/>
          <path class="cls-1" d="M100.33,45.99c-.68.12-1.37.25-2.04.39L88.72,2.05c1.34-.29,2.71-.55,4.08-.78l7.54,44.72Z"/>
          <path class="cls-1" d="M125.86,1.81l-9.07,44.44c-.67-.14-1.34-.26-2.02-.36L121.75,1.07c1.37.21,2.75.46,4.11.74Z"/>
          <path class="cls-1" d="M92.37,48.1c-.64.24-1.29.49-1.92.76L72.84,7.06c1.27-.54,2.57-1.05,3.87-1.53l15.66,42.57Z"/>
          <path class="cls-1" d="M141.78,6.63l-17.11,42c-.63-.26-1.28-.5-1.92-.73l15.15-42.75c1.3.46,2.61.96,3.89,1.48Z"/>
          <path class="cls-1" d="M84.94,51.64c-.59.35-1.17.72-1.73,1.09L58.14,14.93c1.15-.76,2.34-1.51,3.55-2.23l23.25,38.94Z"/>
          <path class="cls-1" d="M156.51,14.29l-24.53,38.15c-.58-.37-1.17-.74-1.77-1.08l22.75-39.23c1.19.69,2.38,1.42,3.54,2.16Z"/>
          <path class="cls-1" d="M78.27,56.51c-.52.46-1.03.93-1.51,1.4l-31.56-32.57c.99-.96,2.02-1.91,3.06-2.83l30.01,34.01Z"/>
          <path class="cls-1" d="M169.59,24.51l-31.09,33.02c-.5-.47-1.02-.94-1.55-1.39l29.55-34.4c1.05.9,2.08,1.83,3.08,2.77Z"/>
          <path class="cls-1" d="M72.59,62.54c-.42.54-.84,1.1-1.24,1.66l-36.96-26.29c.8-1.13,1.64-2.25,2.48-3.33l35.71,27.96Z"/>
          <path class="cls-1" d="M180.59,36.95l-36.6,26.78c-.41-.56-.84-1.12-1.27-1.65l35.34-28.42c.86,1.07,1.71,2.18,2.53,3.29Z"/>
          <path class="cls-1" d="M68.11,69.49c-.31.6-.62,1.22-.91,1.85l-41.15-19.07c.58-1.26,1.2-2.51,1.84-3.73l40.22,20.95Z"/>
          <path class="cls-1" d="M189.13,51.25l-40.92,19.56c-.3-.62-.61-1.24-.94-1.85l39.97-21.43c.65,1.22,1.29,2.47,1.88,3.72Z"/>
          <path class="cls-1" d="M65.01,77.1c-.2.66-.39,1.33-.55,1.99l-43.96-11.15c.34-1.34.71-2.68,1.11-4.01l43.4,13.16Z"/>
          <path class="cls-1" d="M194.89,66.89l-43.84,11.63c-.17-.65-.37-1.32-.58-1.98l43.25-13.65c.42,1.33.81,2.67,1.16,4Z"/>
          <path class="cls-1" d="M63.36,85.16c-.07.68-.13,1.37-.18,2.06l-45.26-2.83c.09-1.38.21-2.78.36-4.15l45.09,4.92Z"/>
          <path class="cls-1" d="M197.65,83.24v.15s-45.21,3.45-45.21,3.45v-.15c-.06-.69-.13-1.39-.22-2.08l45.02-5.49c.17,1.36.3,2.75.41,4.12Z"/>
          <path class="cls-1" d="M63.23,93.49c.05.68.12,1.35.2,2.02l-45.02,5.46c-.16-1.33-.29-2.68-.4-4.03v-.08s45.22-3.45,45.22-3.45v.08Z"/>
          <path class="cls-1" d="M197.74,95.88c-.09,1.38-.21,2.78-.36,4.16l-45.08-4.97c.07-.68.13-1.36.18-2.04l45.26,2.86Z"/>
          <path class="cls-1" d="M65.17,103.59l-43.27,13.6c-.42-1.32-.81-2.67-1.16-4l43.85-11.58c.17.65.37,1.32.57,1.98Z"/>
          <path class="cls-1" d="M195.14,112.33c-.34,1.34-.72,2.69-1.12,4.01l-43.38-13.22c.2-.66.39-1.33.56-1.99l43.95,11.19Z"/>
          <path class="cls-1" d="M68.36,111.17l-39.99,21.39c-.65-1.22-1.29-2.47-1.88-3.72l40.94-19.51c.29.62.61,1.24.93,1.85Z"/>
          <path class="cls-1" d="M189.56,128c-.58,1.25-1.2,2.5-1.84,3.72l-40.21-20.99c.32-.61.62-1.23.91-1.86l41.13,19.12Z"/>
          <path class="cls-1" d="M72.91,118.06l-35.38,28.38c-.86-1.08-1.71-2.19-2.52-3.3l36.64-26.73c.4.55.83,1.11,1.26,1.65Z"/>
          <path class="cls-1" d="M181.21,142.34c-.8,1.12-1.64,2.24-2.49,3.33l-35.69-27.99c.43-.54.84-1.1,1.24-1.66l36.93,26.32Z"/>
          <path class="cls-1" d="M78.67,124.01l-29.6,34.36c-1.04-.9-2.08-1.83-3.07-2.77l31.11-33c.5.47,1.03.95,1.55,1.4Z"/>
          <path class="cls-1" d="M170.38,154.92c-1,.96-2.02,1.91-3.06,2.82l-29.97-34.04c.51-.45,1.03-.93,1.52-1.41l31.5,32.63Z"/>
          <path class="cls-1" d="M85.39,128.79l-22.79,39.21c-1.2-.7-2.39-1.43-3.55-2.17l24.58-38.12c.57.37,1.17.73,1.76,1.08Z"/>
          <path class="cls-1" d="M157.42,165.31c-1.16.77-2.35,1.52-3.54,2.22l-23.19-38.97c.58-.35,1.17-.71,1.74-1.09l25,37.84Z"/>
          <path class="cls-1" d="M92.87,132.26l-15.2,42.73c-1.3-.46-2.61-.96-3.88-1.48l17.16-41.98c.63.26,1.28.51,1.92.73Z"/>
          <path class="cls-1" d="M142.72,173.16c-1.27.54-2.58,1.05-3.87,1.52l-15.6-42.59c.64-.24,1.29-.49,1.92-.75l17.55,41.82Z"/>
          <path class="cls-1" d="M100.84,134.29l-7.03,44.8c-1.36-.21-2.74-.46-4.1-.74l9.1-44.43c.68.14,1.36.26,2.03.37Z"/>
          <path class="cls-1" d="M126.83,178.16c-1.35.29-2.72.55-4.06.78l-7.49-44.73c.68-.11,1.37-.24,2.05-.39l9.5,44.35Z"/>
        </g>
        <path class="cls-3" d="M109.11,121.52l1.12,50.11,5.22,13.92,16.31,5.95c1.1.4,1.1,1.95.01,2.36l-16.25,6.1-5.95,16.31c-.4,1.1-1.95,1.1-2.36.01l-6.1-16.25-16.31-5.95c-1.1-.4-1.1-1.95-.01-2.36l16.25-6.1,5.3-14.52.63-49.55c-17.34-.39-31.28-14.56-31.28-31.99s14.33-32.01,32.01-32.01,32.01,14.33,32.01,32.01-13.58,31.24-30.6,31.97Z"/>
      </g>
      <rect class="cls-2" y=".42" width="216" height="217.5"/>
    </g>
  </g>
</svg>