<?xml version="1.0" encoding="UTF-8"?>
<svg id="Layer_2" data-name="Layer 2" xmlns="http://www.w3.org/2000/svg" xmlns:xlink="http://www.w3.org/1999/xlink" viewBox="0 0 216 218.5">
  <defs>
    <style>
      .cls-1 {
        fill: #4c92e0;
      }

      .cls-1, .cls-2, .cls-3, .cls-4 {
        stroke-width: 0px;
      }

      .cls-2 {
        fill: none;
      }

      .cls-3 {
        fill: url(#radial-gradient);
      }

      .cls-4 {
        fill: #b7d3f3;
      }
    </style>
    <radialGradient id="radial-gradient" cx="72.61" cy="-10.58" fx="72.61" fy="-10.58" r="231.92" gradientUnits="userSpaceOnUse">
      <stop offset=".55" stop-color="#b7d3f3"/>
      <stop offset=".72" stop-color="#6944db"/>
    </radialGradient>
  </defs>
  <g id="Layer_1-2" data-name="Layer 1">
    <g>
      <g>
        <path class="cls-3" d="M108.38,122.96c-45.05,0-83.18-11.34-96-26.97-3.47,3.9-5.35,8.08-5.35,12.43,0,21.27,45.04,38.52,100.6,38.52s100.6-17.24,100.6-38.52c0-4.02-1.61-7.9-4.6-11.55-13.5,15.17-51.05,26.09-95.25,26.09Z"/>
        <g>
          <path class="cls-4" d="M106.97,86.72c-1.05-8.93-1.92-18.89-2.69-27.9-.38-5.51-.94-13.2-1.58-18.6-.64-6.23-.1-12.45.93-18.63.55-3.11,1.24-6.22,2.38-9.34l.15-.41h.51s.16.4.16.4c1.22,3.09,1.99,6.18,2.62,9.28,1.19,6.16,1.89,12.35,1.41,18.6-.5,5.39-.86,13.15-1.1,18.63-.54,9.03-1.15,18.98-1.97,27.96,0,0-.04.41-.04.41h-.74s-.05-.4-.05-.4h0Z"/>
          <path class="cls-4" d="M87.73,31.99c1.73-9.42,7.09-17.67,13.46-24.6,0,0,5.35-6,5.35-6,4.61,5.15,10.29,10.72,13.73,16.73,2.46,4.17,4.57,8.7,5.48,13.57,0,0,.09.49.09.49l-.39.37-.3-.29-4.86-4.74c-4.49-4.45-9.89-9.96-14.3-14.49,0,0,1.19,0,1.19,0l-4.67,4.93c-4.3,4.57-9.73,10.15-14.2,14.6,0,0-.29.29-.29.29l-.39-.37.08-.49h0Z"/>
        </g>
        <path class="cls-4" d="M107.46,218.14c-1.05-7.83-1.92-16.55-2.69-24.45-.38-4.83-.94-11.57-1.58-16.3-.64-5.46-.1-10.91.93-16.33.55-2.73,1.24-5.45,2.38-8.19l.15-.36h.51s.16.35.16.35c1.22,2.71,1.99,5.42,2.62,8.13,1.19,5.39,1.89,10.83,1.41,16.3-.5,4.73-.86,11.53-1.1,16.33-.54,7.92-1.15,16.64-1.97,24.5,0,0-.04.36-.04.36h-.74s-.05-.35-.05-.35h0Z"/>
        <g>
          <path class="cls-1" d="M134.56,41.73l-13.55,17.74c-.71-.08-1.44-.15-2.17-.21l11.31-17.95c1.47.13,2.96.27,4.41.43Z"/>
          <path class="cls-1" d="M94.29,59.47c-.72.08-1.44.16-2.15.25l-15.69-17.49c1.43-.18,2.89-.35,4.34-.5l13.5,17.74Z"/>
          <path class="cls-1" d="M151.47,44.18l-22.09,16.5c-.67-.12-1.35-.24-2.03-.36l20.02-16.87c1.38.23,2.76.47,4.1.72Z"/>
          <path class="cls-1" d="M85.91,60.67c-.67.13-1.34.26-1.97.39l-24.13-16.1c1.31-.27,2.67-.54,4.04-.8l22.06,16.51Z"/>
          <path class="cls-1" d="M166.87,47.74l-29.85,14.71c-.6-.17-1.22-.33-1.83-.49l28.01-15.2c1.24.32,2.47.65,3.67.99Z"/>
          <path class="cls-1" d="M78.25,62.44c-.6.17-1.19.34-1.76.52l-31.63-14.18c1.16-.36,2.36-.71,3.57-1.05l29.83,14.71Z"/>
          <path class="cls-1" d="M180.25,52.29l-36.56,12.43c-.5-.21-1.03-.41-1.57-.61l35-13.04c1.07.4,2.12.81,3.12,1.22Z"/>
          <path class="cls-1" d="M71.57,64.71c-.5.21-1,.42-1.49.63l-38.02-11.8c.97-.43,1.97-.86,2.98-1.27l36.53,12.44Z"/>
          <path class="cls-1" d="M191.18,57.67l-42.04,9.73c-.4-.24-.82-.48-1.24-.71l40.8-10.43c.85.46,1.68.94,2.48,1.41Z"/>
          <path class="cls-1" d="M66.13,67.39c-.39.23-.77.48-1.14.72l-43.19-9c.74-.49,1.51-.98,2.31-1.46l42.02,9.74Z"/>
          <path class="cls-1" d="M199.29,63.73l-46.14,6.67c-.27-.26-.56-.52-.87-.78l45.26-7.45c.61.52,1.2,1.04,1.74,1.57Z"/>
          <path class="cls-1" d="M62.12,70.38c-.27.26-.53.53-.77.79l-46.9-5.88c.48-.53,1-1.07,1.54-1.59l46.12,6.68Z"/>
          <path class="cls-1" d="M204.26,70.25l-48.65,3.36c-.13-.27-.29-.55-.46-.82l48.18-4.2c.35.55.66,1.11.93,1.66Z"/>
          <path class="cls-1" d="M59.65,73.6c-.14.27-.26.55-.36.83l-49.01-2.55c.21-.56.45-1.12.73-1.67l48.64,3.39Z"/>
          <path class="cls-1" d="M205.91,76.97v.06s-49.48,0-49.48,0v-.06c0-.28-.02-.57-.05-.85l49.43-.83c.07.56.1,1.12.1,1.68Z"/>
          <path class="cls-1" d="M58.82,76.97c0,.28.02.55.05.82l-49.43.82c-.06-.54-.1-1.1-.1-1.65v-.03s49.48,0,49.48,0v.03Z"/>
          <path class="cls-1" d="M204.95,82.09c-.21.56-.46,1.12-.74,1.67l-48.63-3.41c.14-.27.26-.55.36-.82l49,2.56Z"/>
          <path class="cls-1" d="M60.1,81.13l-48.2,4.18c-.34-.55-.65-1.11-.93-1.66l48.66-3.34c.13.27.29.55.46.82Z"/>
          <path class="cls-1" d="M200.77,88.69c-.48.53-1,1.07-1.55,1.59l-46.1-6.7c.27-.26.53-.53.77-.79l46.88,5.9Z"/>
          <path class="cls-1" d="M62.94,84.3l-45.28,7.44c-.61-.52-1.19-1.04-1.74-1.57l46.16-6.65c.27.26.56.52.86.78Z"/>
          <path class="cls-1" d="M193.4,94.87c-.74.49-1.51.98-2.3,1.45l-42-9.75c.39-.24.78-.48,1.15-.72l43.15,9.02Z"/>
          <path class="cls-1" d="M67.32,87.23l-40.84,10.41c-.85-.46-1.68-.94-2.47-1.41l42.07-9.71c.39.24.81.48,1.24.71Z"/>
          <path class="cls-1" d="M183.12,100.42c-.96.43-1.96.86-2.98,1.27l-36.5-12.45c.51-.21,1.01-.42,1.49-.63l38,11.81Z"/>
          <path class="cls-1" d="M73.09,89.82l-35.05,13.02c-1.06-.4-2.11-.81-3.11-1.22l36.58-12.42c.51.21,1.04.41,1.57.62Z"/>
          <path class="cls-1" d="M170.3,105.19c-1.16.36-2.36.71-3.56,1.05l-29.78-14.73c.6-.17,1.19-.34,1.77-.52l31.57,14.2Z"/>
          <path class="cls-1" d="M80.01,91.97l-28.04,15.19c-1.24-.32-2.48-.65-3.68-.99l29.9-14.7c.59.17,1.21.33,1.83.49Z"/>
          <path class="cls-1" d="M155.34,109c-1.33.28-2.69.54-4.04.79l-22-16.52c.66-.12,1.33-.25,1.98-.39l24.06,16.11Z"/>
          <path class="cls-1" d="M87.86,93.61l-20.08,16.86c-1.37-.23-2.75-.47-4.1-.72l22.15-16.49c.67.12,1.35.24,2.03.36Z"/>
          <path class="cls-1" d="M138.7,111.73c-1.43.18-2.89.35-4.34.5l-13.44-17.75c.72-.08,1.44-.16,2.15-.25l15.63,17.5Z"/>
          <path class="cls-1" d="M96.36,94.67l-11.36,17.95c-1.46-.13-2.94-.27-4.39-.43l13.58-17.73c.72.08,1.46.15,2.18.21Z"/>
          <path class="cls-1" d="M120.99,113.26c-1.49.08-3,.14-4.48.19l-4.43-18.37c.74-.02,1.51-.06,2.26-.1l6.66,18.27Z"/>
          <path class="cls-1" d="M105.26,95.14l-2.3,18.42c-1.5-.03-3.03-.07-4.53-.12l4.59-18.36c.75.03,1.5.05,2.24.06Z"/>
        </g>
      </g>
      <rect class="cls-2" width="216" height="217.5"/>
    </g>
  </g>
</svg>