<?xml version="1.0" encoding="UTF-8"?>
<svg id="Layer_2" data-name="Layer 2" xmlns="http://www.w3.org/2000/svg" xmlns:xlink="http://www.w3.org/1999/xlink" viewBox="0 0 201.21 217.11">
  <defs>
    <style>
      .cls-1 {
        fill: #4c92e0;
      }

      .cls-1, .cls-2, .cls-3 {
        stroke-width: 0px;
      }

      .cls-2 {
        fill: url(#radial-gradient);
      }

      .cls-3 {
        fill: #b7d3f3;
      }
    </style>
    <radialGradient id="radial-gradient" cx="122.64" cy="131.11" fx="122.64" fy="131.11" r="97.48" gradientUnits="userSpaceOnUse">
      <stop offset=".09" stop-color="#b7d3f3"/>
      <stop offset=".72" stop-color="#6944db"/>
    </radialGradient>
  </defs>
  <g id="Layer_1-2" data-name="Layer 1">
    <g>
      <g>
        <path class="cls-1" d="M109.49,145.54c1.48-.05,2.99-.11,4.48-.19l-6.51-17.88c-.77.02-1.55.04-2.32.05l4.35,18.02Z"/>
        <path class="cls-1" d="M197.23,102.34c-.27-.55-.59-1.11-.93-1.66h-.12c-.51.63-1.06,1.24-1.65,1.84l2.71-.19Z"/>
        <path class="cls-1" d="M5.89,102.43l-1.9-.13c-.28.55-.52,1.11-.73,1.67l4.48.23c-.65-.58-1.27-1.17-1.85-1.77Z"/>
        <path class="cls-1" d="M188.52,107.54c-.76.53-1.55,1.05-2.38,1.57h12.74v-.06c0-.56-.03-1.12-.1-1.68l-10.26.17Z"/>
        <path class="cls-1" d="M2.32,109.02v.03c0,.55.03,1.1.1,1.65l14.21-.24c-.83-.47-1.63-.95-2.41-1.44H2.32Z"/>
        <path class="cls-1" d="M197.19,115.85c.28-.55.53-1.12.74-1.67l-19.25-1c-.85.41-1.72.81-2.62,1.2l21.13,1.48Z"/>
        <path class="cls-1" d="M3.95,115.73c.27.55.58,1.11.93,1.66l22.17-1.92c-.92-.37-1.82-.75-2.69-1.14l-20.4,1.4Z"/>
        <path class="cls-1" d="M192.19,122.36c.55-.52,1.07-1.06,1.55-1.59l-25.75-3.24c-.9.31-1.81.62-2.73.92l26.93,3.91Z"/>
        <path class="cls-1" d="M8.9,122.25c.54.52,1.13,1.05,1.74,1.57l27.4-4.5c-.93-.28-1.85-.57-2.76-.87l-26.38,3.8Z"/>
        <path class="cls-1" d="M184.07,128.4c.79-.47,1.57-.96,2.3-1.45l-29.27-6.12c-.89.23-1.79.46-2.69.69l29.66,6.89Z"/>
        <path class="cls-1" d="M16.99,128.31c.79.47,1.62.95,2.47,1.41l29.54-7.53c-.92-.21-1.83-.42-2.73-.64l-29.29,6.76Z"/>
        <path class="cls-1" d="M173.12,133.78c1.02-.41,2.02-.84,2.98-1.27l-29.68-9.23c-.86.17-1.74.34-2.61.5l29.31,10Z"/>
        <path class="cls-1" d="M27.91,133.71c1.01.41,2.05.82,3.11,1.22l28.61-10.63c-.88-.15-1.76-.3-2.63-.46l-29.09,9.87Z"/>
        <path class="cls-1" d="M159.72,138.32c1.2-.34,2.4-.69,3.56-1.05l-27.17-12.22c-.83.12-1.67.24-2.51.35l26.13,12.92Z"/>
        <path class="cls-1" d="M41.27,138.26c1.2.34,2.43.67,3.68.99l24.88-13.48c-.84-.1-1.67-.21-2.5-.32l-26.05,12.81Z"/>
        <path class="cls-1" d="M144.28,141.88c1.35-.25,2.71-.52,4.04-.79l-22.12-14.81c-.8.08-1.6.16-2.4.23l20.47,15.37Z"/>
        <path class="cls-1" d="M56.65,141.83c1.35.25,2.73.49,4.1.72l18.82-15.8c-.8-.06-1.6-.13-2.4-.2l-20.52,15.28Z"/>
        <path class="cls-1" d="M127.33,144.31c1.45-.15,2.91-.32,4.34-.5l-14.97-16.76c-.78.05-1.55.09-2.34.14l12.97,17.12Z"/>
        <path class="cls-1" d="M73.58,144.28c1.45.15,2.93.3,4.39.43l11-17.38c-.78-.03-1.56-.07-2.33-.11l-13.07,17.07Z"/>
        <path class="cls-1" d="M91.41,145.53c1.5.05,3.03.09,4.53.12l2.26-18.09c-.77,0-1.53-.02-2.29-.03l-4.5,18Z"/>
      </g>
      <ellipse class="cls-2" cx="100.6" cy="75.56" rx="100.6" ry="38.52"/>
      <g>
        <path class="cls-3" d="M99.68,85.33c-1.05-8.93-1.92-18.89-2.69-27.9-.38-5.51-.94-13.2-1.58-18.6-.64-6.23-.1-12.45.93-18.63.55-3.11,1.24-6.22,2.38-9.34l.15-.41h.51s.16.4.16.4c1.22,3.09,1.99,6.18,2.62,9.28,1.19,6.16,1.89,12.35,1.41,18.6-.5,5.39-.86,13.15-1.1,18.63-.54,9.03-1.15,18.98-1.97,27.96,0,0-.04.41-.04.41h-.74s-.05-.4-.05-.4h0Z"/>
        <path class="cls-3" d="M80.44,30.6c1.73-9.42,7.09-17.67,13.46-24.6,0,0,5.35-6,5.35-6,4.61,5.15,10.29,10.72,13.73,16.73,2.46,4.17,4.57,8.7,5.48,13.57,0,0,.09.49.09.49l-.39.37-.3-.29-4.86-4.74c-4.49-4.45-9.89-9.96-14.3-14.49,0,0,1.19,0,1.19,0l-4.67,4.93c-4.3,4.57-9.73,10.15-14.2,14.6,0,0-.29.29-.29.29l-.39-.37.08-.49h0Z"/>
      </g>
      <path class="cls-3" d="M99.7,216.75c-1.05-7.82-1.92-16.53-2.69-24.42-.38-4.82-.94-11.55-1.58-16.28-.64-5.46-.1-10.9.93-16.31.55-2.72,1.24-5.45,2.38-8.18l.15-.36h.51s.16.35.16.35c1.22,2.7,1.99,5.41,2.62,8.12,1.19,5.39,1.89,10.81,1.41,16.28-.5,4.72-.86,11.51-1.1,16.31-.54,7.91-1.15,16.62-1.97,24.47,0,0-.04.36-.04.36h-.74s-.05-.35-.05-.35h0Z"/>
    </g>
  </g>
</svg>