<?xml version="1.0" encoding="UTF-8"?>
<svg id="Layer_2" data-name="Layer 2" xmlns="http://www.w3.org/2000/svg" xmlns:xlink="http://www.w3.org/1999/xlink" viewBox="0 0 216 217.5">
  <defs>
    <style>
      .cls-1 {
        fill: none;
      }

      .cls-1, .cls-2, .cls-3, .cls-4 {
        stroke-width: 0px;
      }

      .cls-2 {
        fill: url(#radial-gradient);
      }

      .cls-3 {
        fill: #78aae0;
      }

      .cls-4 {
        fill: url(#radial-gradient-2);
      }
    </style>
    <radialGradient id="radial-gradient" cx="53.46" cy="133.73" fx="53.46" fy="133.73" r="38.84" gradientUnits="userSpaceOnUse">
      <stop offset=".2" stop-color="#b7d3f3"/>
      <stop offset=".44" stop-color="#6944db"/>
    </radialGradient>
    <radialGradient id="radial-gradient-2" cx="101.02" cy="97.95" fx="101.02" fy="97.95" r="42.36" xlink:href="#radial-gradient"/>
  </defs>
  <g id="Layer_1-2" data-name="Layer 1">
    <g>
      <rect class="cls-1" width="216" height="217.5"/>
      <g>
        <path class="cls-3" d="M67.17,33.65l20.54,40.78c-.62.31-1.24.64-1.85.98l-22.38-39.8c1.21-.68,2.45-1.34,3.69-1.96Z"/>
        <path class="cls-3" d="M78.71,28.79c1.32-.45,2.66-.88,3.98-1.26l12.78,43.84c-.66.19-1.33.4-1.99.63l-14.78-43.21Z"/>
        <path class="cls-3" d="M52.98,42.51l27.67,36.32c-.55.42-1.09.85-1.61,1.29l-29.34-34.99c1.07-.9,2.17-1.78,3.28-2.62Z"/>
        <path class="cls-3" d="M94.99,24.86c1.38-.2,2.78-.37,4.16-.51l4.46,45.44c-.69.07-1.38.15-2.06.25l-6.56-45.19Z"/>
        <path class="cls-3" d="M40.65,53.87l33.91,30.58c-.46.51-.91,1.04-1.35,1.57l-35.29-28.98c.88-1.07,1.8-2.14,2.73-3.17Z"/>
        <path class="cls-3" d="M111.73,24c1.41.06,2.83.15,4.21.27l-4.06,45.48c-.67-.06-1.36-.1-2.05-.13l1.9-45.62Z"/>
        <path class="cls-3" d="M30.64,67.27l38.96,23.82c-.36.59-.71,1.2-1.05,1.8l-40.01-22.01c.67-1.22,1.37-2.43,2.1-3.61Z"/>
        <path class="cls-3" d="M128.32,26.24c1.36.31,2.73.66,4.07,1.04l-12.32,43.97c-.66-.18-1.33-.36-2.01-.51l10.26-44.5Z"/>
        <path class="cls-3" d="M23.27,82.28l42.66,16.28c-.25.66-.49,1.32-.7,1.98l-43.36-14.32c.43-1.31.9-2.63,1.4-3.93Z"/>
        <path class="cls-3" d="M144.19,31.47c1.27.55,2.55,1.14,3.8,1.75l-20.11,41c-.62-.31-1.26-.6-1.89-.88l18.2-41.88Z"/>
        <path class="cls-3" d="M18.77,98.37l44.92,8.21c-.12.68-.23,1.38-.33,2.07l-45.25-6.15c.19-1.38.41-2.77.66-4.13Z"/>
        <path class="cls-3" d="M158.84,39.52c1.15.77,2.3,1.59,3.42,2.42l-27.28,36.61c-.56-.41-1.12-.82-1.69-1.2l25.56-37.84Z"/>
        <path class="cls-3" d="M17.28,115.06l45.66-.2c0,.69.02,1.4.06,2.08l-45.6,2.31c-.07-1.39-.11-2.8-.12-4.19Z"/>
        <path class="cls-3" d="M171.79,50.14c.99.98,1.97,1.99,2.91,3.01l-33.57,30.95c-.47-.51-.95-1.01-1.45-1.5l32.11-32.47Z"/>
        <path class="cls-3" d="M18.92,131.76l44.83-8.66c.13.69.28,1.37.44,2.03l-44.39,10.73c-.32-1.34-.62-2.72-.89-4.1Z"/>
        <path class="cls-3" d="M182.56,62.97c.79,1.14,1.56,2.32,2.3,3.5l-38.71,24.21c-.37-.59-.75-1.17-1.14-1.74l37.55-25.98Z"/>
        <path class="cls-3" d="M23.59,147.82l42.49-16.73c.26.65.53,1.3.81,1.94l.06.14-41.69,18.64-.06-.14c-.56-1.26-1.11-2.56-1.61-3.84Z"/>
        <path class="cls-3" d="M149.08,96.19l41.69-18.64.03.07c.55,1.24,1.09,2.5,1.58,3.76l-42.47,16.76c-.25-.63-.51-1.26-.79-1.88l-.03-.07Z"/>
        <path class="cls-3" d="M151.8,104.1l44.37-10.78c.33,1.34.63,2.72.89,4.09l-44.82,8.71c-.13-.68-.28-1.37-.44-2.03Z"/>
        <path class="cls-2" d="M108.59,114.03c.49.48,1.01.95,1.53,1.41l-66.06,63.76c-1.05-.92-2.08-1.88-3.08-2.84l67.62-62.32Z"/>
        <path class="cls-3" d="M152.99,112.29l45.6-2.36c.07,1.39.11,2.8.12,4.2l-45.66.25c0-.69-.02-1.39-.06-2.08Z"/>
        <path class="cls-3" d="M152.65,120.58l45.25,6.1c-.18,1.37-.4,2.76-.65,4.13l-44.93-8.15c.13-.69.23-1.38.33-2.07Z"/>
        <path class="cls-3" d="M88.17,155.08c.62.3,1.26.6,1.89.87l-18.17,41.89c-1.28-.55-2.55-1.14-3.8-1.75l20.07-41.01Z"/>
        <path class="cls-3" d="M150.79,128.7l43.37,14.29c-.43,1.31-.9,2.63-1.39,3.92l-42.68-16.23c.25-.66.49-1.32.7-1.99Z"/>
        <path class="cls-3" d="M95.96,158.04c.67.19,1.35.36,2.02.51l-10.2,44.51c-1.35-.31-2.72-.66-4.06-1.03l12.24-43.99Z"/>
        <path class="cls-3" d="M147.47,136.35l40.04,21.95c-.67,1.22-1.37,2.43-2.1,3.62l-38.98-23.78c.36-.59.71-1.2,1.04-1.8Z"/>
        <path class="cls-3" d="M104.16,159.53c.69.06,1.38.1,2.06.13l-1.84,45.63c-1.39-.06-2.81-.15-4.2-.27l3.98-45.49Z"/>
        <path class="cls-3" d="M142.82,143.23l35.33,28.93c-.88,1.07-1.8,2.14-2.73,3.18l-33.95-30.54c.46-.51.91-1.04,1.35-1.57Z"/>
        <path class="cls-3" d="M112.44,159.48c.69-.07,1.38-.15,2.06-.25l6.61,45.18c-1.37.2-2.77.37-4.16.51l-4.52-45.44Z"/>
        <path class="cls-3" d="M137.01,149.11l29.36,34.97c-1.07.9-2.17,1.78-3.27,2.62l-27.71-36.29c.54-.42,1.09-.85,1.62-1.3Z"/>
        <path class="cls-3" d="M120.56,157.9c.68-.2,1.35-.41,2-.64l14.83,43.19c-1.3.45-2.64.87-3.97,1.26l-12.86-43.81Z"/>
        <path class="cls-3" d="M130.18,153.84l22.43,39.78c-1.22.69-2.46,1.35-3.7,1.97l-20.56-40.77c.61-.31,1.23-.64,1.83-.98Z"/>
        <path class="cls-4" d="M123.57,134.34l-16.01-7.51-16.12,7.27c-1.1.49-2.22-.64-1.71-1.73l7.51-16.01-7.27-16.12c-.49-1.1.64-2.22,1.73-1.71l16.01,7.51,16.12-7.27c1.1-.49,2.22.64,1.71,1.73l-7.51,16.01,7.27,16.12c.49,1.1-.64,2.22-1.73,1.71Z"/>
      </g>
    </g>
  </g>
</svg>