<?xml version="1.0" encoding="UTF-8"?>
<svg id="Layer_2" data-name="Layer 2" xmlns="http://www.w3.org/2000/svg" xmlns:xlink="http://www.w3.org/1999/xlink" viewBox="0 0 216 217.5">
  <defs>
    <style>
      .cls-1 {
        fill: none;
      }

      .cls-1, .cls-2, .cls-3, .cls-4, .cls-5, .cls-6 {
        stroke-width: 0px;
      }

      .cls-2 {
        fill: url(#radial-gradient);
      }

      .cls-3 {
        fill: #78aae0;
      }

      .cls-4 {
        fill: url(#radial-gradient-2);
      }

      .cls-5 {
        fill: url(#radial-gradient-3);
      }

      .cls-6 {
        fill: url(#radial-gradient-4);
      }
    </style>
    <radialGradient id="radial-gradient" cx="5.99" cy="15.42" fx="5.99" fy="15.42" r="366.91" gradientTransform="translate(-13.38 7.63) rotate(-3.67)" gradientUnits="userSpaceOnUse">
      <stop offset=".47" stop-color="#b7d3f3"/>
      <stop offset=".77" stop-color="#6944db"/>
    </radialGradient>
    <radialGradient id="radial-gradient-2" cx="26.49" cy="30.43" fx="26.49" fy="30.43" r="307.32" gradientTransform="translate(-11.8 17.25) rotate(-7.29)" gradientUnits="userSpaceOnUse">
      <stop offset=".5" stop-color="#edf2f9"/>
      <stop offset=".56" stop-color="#696bdb"/>
    </radialGradient>
    <radialGradient id="radial-gradient-3" cx="14.71" cy="19.99" fx="14.71" fy="19.99" r="366.91" xlink:href="#radial-gradient"/>
    <radialGradient id="radial-gradient-4" cx="81" cy="128.26" fx="81" fy="128.26" r="100.08" gradientTransform="translate(-2.01 2.47) rotate(-.88)" gradientUnits="userSpaceOnUse">
      <stop offset=".41" stop-color="#b7d3f3"/>
      <stop offset=".54" stop-color="#6944db"/>
    </radialGradient>
  </defs>
  <g id="Layer_1-2" data-name="Layer 1">
    <g>
      <rect class="cls-1" width="216" height="217.5"/>
      <g>
        <path class="cls-3" d="M148.62,195.95l-20.27-40.92c.62-.31,1.25-.64,1.85-.97l22.12,39.95c-1.21.67-2.46,1.32-3.7,1.94Z"/>
        <path class="cls-3" d="M137.05,200.73c-1.32.44-2.66.86-3.99,1.24l-12.5-43.92c.66-.19,1.33-.4,1.99-.62l14.5,43.3Z"/>
        <path class="cls-3" d="M162.86,187.18l-27.43-36.5c.55-.41,1.09-.84,1.62-1.28l29.11,35.18c-1.07.89-2.18,1.77-3.3,2.6Z"/>
        <path class="cls-3" d="M120.74,204.56c-1.38.19-2.78.35-4.16.48l-4.16-45.47c.69-.06,1.38-.14,2.06-.24l6.26,45.23Z"/>
        <path class="cls-3" d="M175.27,175.91l-33.71-30.8c.46-.51.92-1.03,1.36-1.56l35.1,29.2c-.89,1.07-1.81,2.13-2.75,3.15Z"/>
        <path class="cls-3" d="M104,205.31c-1.41-.07-2.83-.17-4.21-.3l4.35-45.45c.67.06,1.36.11,2.05.15l-2.2,45.61Z"/>
        <path class="cls-3" d="M185.36,162.57l-38.8-24.07c.36-.59.72-1.19,1.06-1.8l39.87,22.26c-.68,1.21-1.39,2.42-2.12,3.6Z"/>
        <path class="cls-3" d="M87.42,202.96c-1.36-.32-2.73-.68-4.06-1.06l12.6-43.89c.66.19,1.33.37,2.01.53l-10.54,44.43Z"/>
        <path class="cls-3" d="M192.83,147.61l-42.56-16.56c.25-.65.5-1.32.72-1.97l43.26,14.6c-.44,1.31-.92,2.63-1.42,3.92Z"/>
        <path class="cls-3" d="M71.59,197.63c-1.27-.56-2.54-1.16-3.78-1.78l20.37-40.87c.62.31,1.26.61,1.89.89l-18.48,41.76Z"/>
        <path class="cls-3" d="M197.44,131.55l-44.86-8.5c.13-.68.24-1.38.34-2.07l45.2,6.45c-.2,1.38-.43,2.76-.68,4.12Z"/>
        <path class="cls-3" d="M56.99,189.49c-1.14-.78-2.29-1.61-3.4-2.45l27.52-36.44c.55.42,1.12.83,1.68,1.21l-25.8,37.67Z"/>
        <path class="cls-3" d="M199.03,114.87l-45.66-.09c0-.69-.01-1.4-.04-2.09l45.62-2.02c.06,1.39.09,2.8.09,4.2Z"/>
        <path class="cls-3" d="M44.11,178.79c-.98-.98-1.96-2-2.89-3.03l33.77-30.73c.46.51.95,1.02,1.44,1.51l-32.32,32.26Z"/>
        <path class="cls-3" d="M197.51,98.16l-44.89,8.37c-.13-.69-.27-1.37-.43-2.03l44.45-10.44c.32,1.35.61,2.72.86,4.1Z"/>
        <path class="cls-3" d="M33.42,165.88c-.78-1.15-1.55-2.33-2.28-3.52l38.87-23.96c.36.59.74,1.18,1.13,1.74l-37.72,25.73Z"/>
        <path class="cls-3" d="M192.94,82.07l-42.59,16.46c-.25-.65-.52-1.3-.8-1.94l-.06-.14,41.81-18.37.06.14c.56,1.27,1.09,2.56,1.59,3.85Z"/>
        <path class="cls-3" d="M67.11,132.89l-41.81,18.37-.03-.07c-.55-1.24-1.07-2.51-1.56-3.77l42.58-16.49c.24.63.5,1.26.78,1.89l.03.07Z"/>
        <path class="cls-2" d="M171.24,74.45c-.22-.65-.47-1.3-.72-1.94l42.42-16.89c.52,1.3,1.01,2.62,1.46,3.94l-43.17,14.89Z"/>
        <path class="cls-3" d="M64.45,124.96l-44.44,10.49c-.32-1.35-.61-2.73-.87-4.1l44.88-8.42c.13.69.27,1.37.43,2.03Z"/>
        <path class="cls-4" d="M107.04,120.51c-.49-.48-1.01-.95-1.53-1.41l77.39-80.1c1.05.92,5.09,4.94,6.09,5.91l-81.95,75.6Z"/>
        <path class="cls-3" d="M63.31,116.76l-45.62,2.07c-.06-1.39-.09-2.8-.09-4.2l45.66.05c0,.69.01,1.39.05,2.08Z"/>
        <path class="cls-5" d="M153.27,55.81c-.64-.26-1.3-.5-1.95-.73l14.96-43.14c1.31.45,2.63.94,3.91,1.46l-16.92,42.41Z"/>
        <path class="cls-3" d="M63.7,108.47l-45.21-6.39c.19-1.37.42-2.76.68-4.12l44.87,8.45c-.13.69-.24,1.38-.34,2.07Z"/>
        <path class="cls-3" d="M128.4,74.39c-.62-.31-1.25-.6-1.89-.89l18.44-41.77c1.27.56,2.55,1.16,3.79,1.78l-20.34,40.88Z"/>
        <path class="cls-3" d="M65.62,100.37l-43.28-14.57c.44-1.31.92-2.62,1.42-3.91l42.58,16.5c-.25.65-.5,1.32-.72,1.98Z"/>
        <path class="cls-3" d="M120.64,71.38c-.67-.19-1.35-.37-2.02-.53l10.49-44.44c1.35.32,2.71.67,4.05,1.06l-12.52,43.91Z"/>
        <path class="cls-3" d="M68.99,92.74l-39.89-22.21c.67-1.21,1.39-2.43,2.12-3.61l38.83,24.03c-.36.59-.72,1.19-1.05,1.79Z"/>
        <path class="cls-3" d="M112.45,69.84c-.68-.06-1.38-.11-2.06-.15l2.14-45.61c1.39.07,2.81.17,4.2.3l-4.28,45.46Z"/>
        <path class="cls-3" d="M73.68,85.89l-35.14-29.16c.89-1.07,1.81-2.13,2.75-3.16l33.75,30.75c-.46.51-.92,1.03-1.36,1.56Z"/>
        <path class="cls-3" d="M104.17,69.84c-.69.06-1.38.14-2.06.24l-6.32-45.22c1.38-.19,2.78-.35,4.16-.48l4.22,45.47Z"/>
        <path class="cls-3" d="M79.53,80.04l-29.13-35.16c1.07-.89,2.18-1.76,3.29-2.6l27.48,36.47c-.55.41-1.09.85-1.63,1.29Z"/>
        <path class="cls-3" d="M96.04,71.36c-.68.19-1.35.4-2.01.62l-14.55-43.28c1.3-.44,2.64-.85,3.98-1.24l12.58,43.9Z"/>
        <path class="cls-3" d="M86.39,75.36l-22.17-39.92c1.22-.68,2.47-1.33,3.71-1.95l20.29,40.9c-.61.3-1.23.63-1.84.97Z"/>
        <path class="cls-6" d="M92.76,98.53l15.98,7.58,16.16-7.19c1.1-.49,2.22.65,1.7,1.74l-7.58,15.98,7.19,16.16c.49,1.1-.65,2.22-1.74,1.7l-15.98-7.58-16.16,7.19c-1.1.49-2.22-.65-1.7-1.74l7.58-15.98-7.19-16.16c-.49-1.1.65-2.22,1.74-1.7Z"/>
      </g>
    </g>
  </g>
</svg>