<?xml version="1.0" encoding="UTF-8"?>
<svg id="Layer_2" data-name="Layer 2" xmlns="http://www.w3.org/2000/svg" xmlns:xlink="http://www.w3.org/1999/xlink" viewBox="0 0 216 217.5">
  <defs>
    <style>
      .cls-1 {
        fill: none;
      }

      .cls-1, .cls-2, .cls-3, .cls-4 {
        stroke-width: 0px;
      }

      .cls-2 {
        fill: url(#radial-gradient);
      }

      .cls-3 {
        fill: #78aae0;
      }

      .cls-4 {
        fill: #6944db;
      }
    </style>
    <radialGradient id="radial-gradient" cx="100.27" cy="123.08" fx="100.27" fy="123.08" r="98.36" gradientUnits="userSpaceOnUse">
      <stop offset=".53" stop-color="#b7d3f3"/>
      <stop offset=".78" stop-color="#696bdb"/>
    </radialGradient>
  </defs>
  <g id="Layer_1-2" data-name="Layer 1">
    <g>
      <rect class="cls-1" width="216" height="217.5"/>
      <g>
        <path class="cls-2" d="M133.57,152.84l-24.25-13.99c-1.12-.65-2.5-.65-3.61,0l-24.25,13.99c-1.12.65-1.81,1.84-1.81,3.13v27.99c0,1.29.69,2.49,1.81,3.13l24.25,13.99c1.12.65,2.5.65,3.61,0l24.25-13.99c1.12-.65,1.81-1.84,1.81-3.13v-27.99c0-1.29-.69-2.49-1.81-3.13ZM119.49,170.67l-8.02,2.93-3,7.99c-.35.92-1.65.91-1.98,0l-2.93-8.02-7.99-3c-.92-.35-.91-1.65,0-1.98l8.02-2.93,3-7.99c.34-.92,1.65-.91,1.98,0l2.93,8.02,7.99,3c.92.34.91,1.65,0,1.98Z"/>
        <g>
          <path class="cls-3" d="M155.45,74.34l-24.16,18.04c-.73-.14-1.48-.27-2.22-.39l21.89-18.44c1.5.25,3.01.51,4.49.79Z"/>
          <path class="cls-3" d="M83.76,92.37c-.74.14-1.46.28-2.16.42l-26.39-17.61c1.44-.3,2.92-.59,4.42-.87l24.12,18.05Z"/>
          <path class="cls-3" d="M172.29,78.23l-32.64,16.08c-.66-.18-1.33-.37-2-.54l30.62-16.62c1.35.35,2.7.71,4.02,1.08Z"/>
          <path class="cls-3" d="M75.39,94.31c-.66.18-1.3.38-1.93.57l-34.59-15.51c1.26-.39,2.58-.78,3.9-1.15l32.61,16.09Z"/>
          <path class="cls-3" d="M186.92,83.2l-39.97,13.59c-.55-.22-1.13-.45-1.72-.67l38.27-14.25c1.16.43,2.31.88,3.41,1.33Z"/>
          <path class="cls-3" d="M68.08,96.79c-.55.22-1.1.46-1.62.69l-41.58-12.9c1.06-.47,2.15-.94,3.26-1.39l39.95,13.6Z"/>
          <path class="cls-3" d="M198.87,89.09l-45.97,10.64c-.44-.26-.89-.52-1.36-.77l44.62-11.41c.93.5,1.84,1.02,2.71,1.55Z"/>
          <path class="cls-3" d="M62.13,99.72c-.43.26-.85.52-1.25.79l-47.22-9.84c.81-.54,1.66-1.07,2.52-1.59l45.95,10.65Z"/>
          <path class="cls-3" d="M207.74,95.72l-50.45,7.29c-.3-.28-.61-.57-.95-.85l49.49-8.15c.67.56,1.31,1.14,1.9,1.71Z"/>
          <path class="cls-3" d="M57.74,102.99c-.3.28-.58.58-.84.86l-51.28-6.43c.52-.58,1.09-1.17,1.69-1.74l50.43,7.3Z"/>
          <path class="cls-3" d="M213.17,102.85l-53.2,3.68c-.15-.3-.32-.6-.51-.9l52.69-4.59c.38.6.72,1.21,1.02,1.81Z"/>
          <path class="cls-3" d="M55.05,106.51c-.15.3-.28.6-.4.91l-53.59-2.78c.23-.61.5-1.22.8-1.83l53.18,3.7Z"/>
          <path class="cls-3" d="M214.98,110.19v.07s-54.11,0-54.11,0v-.07c0-.31-.02-.62-.06-.93l54.05-.91c.07.61.11,1.23.11,1.84Z"/>
          <path class="cls-3" d="M54.14,110.19c0,.3.02.6.05.9L.14,111.99c-.07-.59-.11-1.2-.11-1.8v-.03s54.11,0,54.11,0v.03Z"/>
          <path class="cls-3" d="M213.93,115.8c-.23.61-.5,1.23-.81,1.83l-53.17-3.73c.15-.3.28-.6.4-.9l53.58,2.8Z"/>
          <path class="cls-3" d="M55.53,114.74l-52.7,4.57c-.37-.6-.72-1.21-1.01-1.81l53.21-3.65c.15.3.32.6.5.9Z"/>
          <path class="cls-3" d="M209.35,123c-.53.58-1.1,1.17-1.7,1.74l-50.41-7.33c.3-.28.58-.57.84-.86l51.27,6.45Z"/>
          <path class="cls-3" d="M58.64,118.21l-49.51,8.13c-.67-.56-1.31-1.14-1.9-1.71l50.47-7.27c.29.28.61.57.94.85Z"/>
          <path class="cls-3" d="M201.29,129.76c-.8.53-1.65,1.07-2.52,1.59l-45.92-10.66c.43-.26.85-.52,1.26-.79l47.19,9.87Z"/>
          <path class="cls-3" d="M63.43,121.41l-44.66,11.39c-.93-.51-1.84-1.03-2.7-1.55l46-10.61c.43.26.89.52,1.35.78Z"/>
          <path class="cls-3" d="M190.06,135.84c-1.05.47-2.15.94-3.26,1.39l-39.91-13.61c.56-.23,1.1-.46,1.63-.69l41.55,12.92Z"/>
          <path class="cls-3" d="M69.74,124.24l-38.32,14.24c-1.16-.43-2.3-.88-3.4-1.33l40-13.58c.56.23,1.13.45,1.72.67Z"/>
          <path class="cls-3" d="M176.04,141.05c-1.27.39-2.58.78-3.89,1.15l-32.56-16.1c.65-.18,1.3-.38,1.94-.57l34.52,15.53Z"/>
          <path class="cls-3" d="M77.31,126.59l-30.67,16.61c-1.36-.35-2.71-.71-4.02-1.08l32.69-16.07c.65.18,1.32.36,2,.54Z"/>
          <path class="cls-3" d="M159.68,145.22c-1.45.3-2.94.59-4.42.87l-24.06-18.06c.72-.13,1.45-.28,2.17-.42l26.31,17.62Z"/>
          <path class="cls-3" d="M85.89,128.39l-21.96,18.43c-1.5-.25-3.01-.51-4.48-.79l24.22-18.03c.73.14,1.48.27,2.22.39Z"/>
        </g>
        <path class="cls-4" d="M128.35,60.66c0,11.51-9.33,20.84-20.84,20.84s-20.84-9.33-20.84-20.84c0-6.67,2.34-13.84,7.78-21.62,8.45-12.07,11.66-26.43,13.06-26.41.94.02,4.57,14.61,13.38,27.19,5.44,7.77,7.46,14.39,7.46,20.84Z"/>
      </g>
    </g>
  </g>
</svg>