<?xml version="1.0" encoding="UTF-8"?>
<svg id="Layer_2" data-name="Layer 2" xmlns="http://www.w3.org/2000/svg" xmlns:xlink="http://www.w3.org/1999/xlink" viewBox="0 0 216 218.47">
  <defs>
    <style>
      .cls-1 {
        fill: #4c92e0;
      }

      .cls-1, .cls-2, .cls-3 {
        stroke-width: 0px;
      }

      .cls-2 {
        fill: none;
      }

      .cls-3 {
        fill: url(#radial-gradient);
      }
    </style>
    <radialGradient id="radial-gradient" cx="104.4" cy="215.9" fx="104.4" fy="215.9" r="109.96" gradientUnits="userSpaceOnUse">
      <stop offset=".49" stop-color="#b7d3f3"/>
      <stop offset=".67" stop-color="#696bdb"/>
    </radialGradient>
  </defs>
  <g id="Layer_1-2" data-name="Layer 1">
    <g>
      <rect class="cls-2" width="216" height="217.5"/>
      <g>
        <path class="cls-1" d="M139.5,104.28c-.43-.5-.87-.99-1.32-1.47l64.91-61.1c1.38,1.46,2.74,2.98,4.04,4.5l-67.63,58.07Z"/>
        <path class="cls-1" d="M75.4,103.65L8.87,44.32c1.34-1.51,2.74-3,4.15-4.45l63.71,62.35c-.45.46-.9.94-1.33,1.42Z"/>
        <path class="cls-1" d="M133.83,98.79c-.5-.4-1.02-.8-1.55-1.19l52.66-71.92c1.63,1.19,3.25,2.44,4.82,3.7l-55.94,69.41Z"/>
        <path class="cls-1" d="M81.15,98.29L26.58,27.81c1.58-1.23,3.22-2.43,4.86-3.59l51.31,72.89c-.54.38-1.08.78-1.6,1.18Z"/>
        <path class="cls-1" d="M127.31,94.46c-.58-.31-1.17-.61-1.75-.89L164.15,13.21c1.81.87,3.63,1.8,5.41,2.76l-42.25,78.49Z"/>
        <path class="cls-1" d="M87.77,94.07L46.99,14.81c1.79-.92,3.63-1.82,5.47-2.65l37.06,81.08c-.58.27-1.17.55-1.74.85Z"/>
        <path class="cls-1" d="M120.12,91.4c-.6-.19-1.23-.37-1.85-.54L141.35,4.76c1.96.53,3.93,1.1,5.86,1.72l-27.09,84.93Z"/>
        <path class="cls-1" d="M94.98,91.17L69.51,5.74c1.92-.57,3.89-1.11,5.85-1.6l21.51,86.51c-.64.16-1.28.33-1.89.52Z"/>
        <path class="cls-1" d="M112.51,89.74c-.64-.08-1.29-.15-1.94-.2L117.44.67c2.01.16,4.05.36,6.05.61l-10.97,88.47Z"/>
        <path class="cls-1" d="M102.62,89.65L93.33.99c1.99-.21,4.01-.37,6.02-.49l5.25,88.99c-.66.04-1.33.09-1.98.16Z"/>
        <path class="cls-3" d="M54.55,165.63l38.19,13.94,14.28,38.07c.42,1.13,2.02,1.12,2.43-.01l13.94-38.19,38.07-14.28c1.13-.42,1.12-2.02-.01-2.43l-38.19-13.94-14.28-38.07c-.42-1.13-2.02-1.12-2.43.01l-13.94,38.19-38.07,14.28c-1.13.42-1.12,2.02.01,2.43Z"/>
      </g>
    </g>
  </g>
</svg>