<?xml version="1.0" encoding="UTF-8"?>
<svg id="Layer_2" data-name="Layer 2" xmlns="http://www.w3.org/2000/svg" xmlns:xlink="http://www.w3.org/1999/xlink" viewBox="0 0 216 217.5">
  <defs>
    <style>
      .cls-1 {
        fill: none;
      }

      .cls-1, .cls-2, .cls-3, .cls-4 {
        stroke-width: 0px;
      }

      .cls-2 {
        fill: url(#radial-gradient);
      }

      .cls-3 {
        fill: #78aae0;
      }

      .cls-4 {
        fill: url(#radial-gradient-2);
      }
    </style>
    <radialGradient id="radial-gradient" cx="98.48" cy="173" fx="98.48" fy="173" r="185.05" gradientUnits="userSpaceOnUse">
      <stop offset=".53" stop-color="#b7d3f3"/>
      <stop offset=".7" stop-color="#696bdb"/>
    </radialGradient>
    <radialGradient id="radial-gradient-2" cx="98.48" cy="173" fx="98.48" fy="173" r="185.05" gradientUnits="userSpaceOnUse">
      <stop offset=".14" stop-color="#b7d3f3"/>
      <stop offset=".21" stop-color="#696bdb"/>
    </radialGradient>
  </defs>
  <g id="Layer_1-2" data-name="Layer 1">
    <g>
      <rect class="cls-1" width="216" height="217.5"/>
      <g>
        <g>
          <path class="cls-3" d="M215.89,158.33l-53.81-2.44c.04-.82.06-1.65.06-2.46,0-.33,0-.66,0-.98l53.86-.96c.01.65.02,1.29.02,1.94,0,1.63-.04,3.28-.11,4.91Z"/>
          <path class="cls-3" d="M2,154.39c0-.34,0-.68,0-1.02,0-1.3.03-2.61.07-3.89l53.83,1.98c-.02.65-.04,1.31-.04,1.97v.49s-53.87.48-53.87.48Z"/>
          <path class="cls-3" d="M161.49,145.11c-.13-.8-.27-1.61-.43-2.41l52.78-10.77c.33,1.6.62,3.23.87,4.85l-53.22,8.33Z"/>
          <path class="cls-3" d="M56.67,144.13l-53.06-9.31c.28-1.62.61-3.25.97-4.85l52.56,11.78c-.18.78-.34,1.59-.48,2.38Z"/>
          <path class="cls-3" d="M159.09,135.64c-.26-.75-.55-1.51-.86-2.26l49.88-20.34c.62,1.53,1.22,3.09,1.76,4.63l-50.78,17.97Z"/>
          <path class="cls-3" d="M59.24,134.73l-50.42-18.96c.58-1.53,1.2-3.08,1.85-4.59l49.49,21.27c-.32.75-.63,1.51-.91,2.27Z"/>
          <path class="cls-3" d="M155.01,126.82c-.41-.71-.84-1.41-1.28-2.1l45.31-29.14c.88,1.37,1.74,2.78,2.56,4.19l-46.59,27.05Z"/>
          <path class="cls-3" d="M63.51,125.94l-46.07-27.92c.84-1.39,1.73-2.78,2.64-4.15l44.75,29.98c-.46.69-.91,1.39-1.33,2.08Z"/>
          <path class="cls-3" d="M149.34,118.83c-.53-.62-1.08-1.23-1.64-1.83l39.23-36.92c1.12,1.19,2.22,2.42,3.29,3.66l-40.87,35.09Z"/>
          <path class="cls-3" d="M69.34,118.06l-40.21-35.85c1.09-1.22,2.23-2.44,3.37-3.61l38.5,37.68c-.57.58-1.13,1.18-1.66,1.78Z"/>
          <path class="cls-3" d="M142.29,112.01c-.63-.51-1.28-1.01-1.94-1.49l31.82-43.46c1.32.97,2.64,1.98,3.92,3.01l-33.8,41.94Z"/>
          <path class="cls-3" d="M76.5,111.38l-32.98-42.59c1.29-1,2.62-1.98,3.95-2.92l31.01,44.05c-.67.47-1.34.96-1.98,1.46Z"/>
          <path class="cls-3" d="M134.15,106.6c-.72-.39-1.46-.76-2.19-1.11l23.32-48.56c1.47.71,2.95,1.46,4.4,2.24l-25.53,47.43Z"/>
          <path class="cls-3" d="M84.76,106.12l-24.65-47.9c1.46-.75,2.95-1.47,4.44-2.15l22.4,48.99c-.73.34-1.47.69-2.19,1.06Z"/>
          <path class="cls-3" d="M125.15,102.78c-.76-.24-1.55-.47-2.33-.68l13.94-52.03c1.59.43,3.19.9,4.75,1.39l-16.37,51.32Z"/>
          <path class="cls-3" d="M93.79,102.49l-15.39-51.62c1.56-.46,3.16-.9,4.75-1.3l13,52.28c-.8.2-1.59.42-2.36.64Z"/>
          <path class="cls-3" d="M115.63,100.69c-.8-.1-1.62-.18-2.43-.24l4.15-53.71c1.63.13,3.29.29,4.91.49l-6.63,53.46Z"/>
          <path class="cls-3" d="M103.35,100.58l-5.62-53.57c1.62-.17,3.26-.3,4.9-.4l3.17,53.78c-.82.05-1.65.12-2.45.2Z"/>
        </g>
        <g>
          <path class="cls-2" d="M112.4,129.98l20.16-73.58c3.5.87,7.04,1.85,10.51,2.89l-25.47,72.12c-1.72-.52-3.48-1-5.2-1.43Z"/>
          <circle class="cls-4" cx="109.37" cy="147.64" r="9.96"/>
        </g>
      </g>
    </g>
  </g>
</svg>