<?xml version="1.0" encoding="UTF-8"?>
<svg id="Layer_2" data-name="Layer 2" xmlns="http://www.w3.org/2000/svg" xmlns:xlink="http://www.w3.org/1999/xlink" viewBox="0 0 216 217.5">
  <defs>
    <style>
      .cls-1 {
        fill: none;
      }

      .cls-1, .cls-2, .cls-3, .cls-4, .cls-5 {
        stroke-width: 0px;
      }

      .cls-2 {
        fill: url(#radial-gradient);
      }

      .cls-3 {
        fill: #78aae0;
      }

      .cls-4 {
        fill: #edf2f9;
      }

      .cls-5 {
        fill: #6833c7;
      }
    </style>
    <radialGradient id="radial-gradient" cx="189.09" cy="163.84" fx="189.09" fy="163.84" r="246.98" gradientUnits="userSpaceOnUse">
      <stop offset=".19" stop-color="#b7d3f3"/>
      <stop offset=".38" stop-color="#5001dc"/>
    </radialGradient>
  </defs>
  <g id="Layer_1-2" data-name="Layer 1">
    <g>
      <rect class="cls-1" width="216" height="217.5"/>
      <g>
        <circle class="cls-5" cx="179.27" cy="152.36" r="36.41"/>
        <g>
          <path class="cls-3" d="M23.21,109.9l-21.91-.34c-.02,1.19-.01,2.4.03,3.6l21.9-.66c-.02-.75-.03-1.5-.03-2.26,0-.11,0-.23,0-.34Z"/>
          <path class="cls-3" d="M2.39,123.88c.2,1.18.43,2.37.68,3.53l20.98-4.53c-.12-.86-.22-1.73-.31-2.6l-21.35,3.6Z"/>
          <path class="cls-3" d="M2.86,95.22c-.24,1.18-.46,2.37-.64,3.56l21.34,3.32c.07-.87.16-1.74.26-2.61l-20.95-4.28Z"/>
          <path class="cls-3" d="M6.08,137.81c.41,1.12.86,2.25,1.32,3.36l18.64-7.85c-.22-.87-.42-1.74-.62-2.62l-19.35,7.12Z"/>
          <path class="cls-3" d="M7.04,81.43c-.45,1.11-.88,2.24-1.28,3.37l19.29,6.83c.18-.88.36-1.76.56-2.64l-18.57-7.56Z"/>
          <path class="cls-3" d="M12.3,150.83c.62,1.04,1.27,2.08,1.93,3.07l15.14-10.04c-.33-.88-.66-1.76-.97-2.65l-16.11,9.62Z"/>
          <path class="cls-3" d="M13.67,68.66c-.65,1.01-1.28,2.04-1.88,3.07l16.02,9.29c.29-.9.6-1.79.91-2.68l-15.06-9.68Z"/>
          <path class="cls-3" d="M20.8,162.47c.8.9,1.62,1.8,2.45,2.65l10.96-10.61c-.47-.88-.92-1.77-1.36-2.67l-12.04,10.63Z"/>
          <path class="cls-3" d="M22.53,57.32c-.81.86-1.62,1.76-2.4,2.67l11.94,10.26c.43-.91.86-1.81,1.32-2.71l-10.85-10.22Z"/>
          <path class="cls-3" d="M31.26,172.34c.94.73,1.91,1.46,2.88,2.15l6.65-9.35c-.62-.87-1.23-1.76-1.83-2.65l-7.71,9.84Z"/>
          <path class="cls-3" d="M33.32,47.79c-.97.71-1.93,1.44-2.85,2.19l7.58,9.42c.58-.91,1.19-1.81,1.8-2.7l-6.52-8.91Z"/>
          <path class="cls-3" d="M43.36,180.13c1.06.55,2.15,1.09,3.24,1.59l2.85-6.15c-.81-.84-1.59-1.7-2.37-2.57l-3.71,7.13Z"/>
          <path class="cls-3" d="M45.71,40.39c-1.08.52-2.16,1.06-3.22,1.63l3.56,6.64c.77-.89,1.56-1.77,2.36-2.63l-2.69-5.63Z"/>
          <path class="cls-3" d="M56.7,185.57c1.15.35,2.31.67,3.47.97l.29-1.13c-1.01-.77-2.01-1.56-2.99-2.37l-.77,2.53Z"/>
          <path class="cls-3" d="M59.26,35.4c-1.15.31-2.32.64-3.46,1.01l.61,1.94c.98-.83,1.97-1.65,2.98-2.45l-.13-.49Z"/>
        </g>
        <path class="cls-2" d="M142.86,152.36c0-20.11,16.3-36.41,36.41-36.41,5.87,0,11.41,1.4,16.31,3.86.38-3.14.6-6.33.6-9.57,0-43.37-35.16-78.53-78.53-78.53S39.13,66.87,39.13,110.24s35.16,78.53,78.53,78.53c13.47,0,26.15-3.4,37.23-9.37-7.38-6.66-12.03-16.31-12.03-27.04Z"/>
        <g>
          <path class="cls-4" d="M179.08,131.76c5.04,12.38,5.23,28.73.39,41.2-5.08-12.37-5.2-28.73-.39-41.2h0Z"/>
          <path class="cls-4" d="M199.87,152.17c-12.38,5.04-28.73,5.23-41.2.39,12.37-5.08,28.73-5.19,41.2-.39h0Z"/>
        </g>
      </g>
    </g>
  </g>
</svg>