<?xml version="1.0" encoding="UTF-8"?>
<svg id="Layer_2" data-name="Layer 2" xmlns="http://www.w3.org/2000/svg" xmlns:xlink="http://www.w3.org/1999/xlink" viewBox="0 0 216 217.5">
  <defs>
    <style>
      .cls-1 {
        fill: #2e0b6c;
      }

      .cls-1, .cls-2, .cls-3, .cls-4, .cls-5 {
        stroke-width: 0px;
      }

      .cls-2 {
        fill: none;
      }

      .cls-3 {
        fill: url(#radial-gradient);
      }

      .cls-4 {
        fill: #78aae0;
      }

      .cls-5 {
        fill: #b7d3f3;
      }
    </style>
    <radialGradient id="radial-gradient" cx="28.25" cy="5.1" fx="28.25" fy="5.1" r="429.35" gradientUnits="userSpaceOnUse">
      <stop offset=".28" stop-color="#b7d3f3"/>
      <stop offset=".44" stop-color="#5001dc"/>
    </radialGradient>
  </defs>
  <g id="Layer_1-2" data-name="Layer 1">
    <g>
      <rect class="cls-2" width="216" height="217.5"/>
      <g>
        <circle class="cls-5" cx="179.46" cy="152.21" r="36.41"/>
        <path class="cls-3" d="M143.05,152.21c0-20.11,16.3-36.41,36.41-36.41,5.87,0,11.41,1.4,16.31,3.86.38-3.14.6-6.33.6-9.57,0-43.37-35.16-78.53-78.53-78.53S39.32,66.72,39.32,110.09s35.16,78.53,78.53,78.53c13.47,0,26.15-3.4,37.23-9.37-7.38-6.66-12.03-16.31-12.03-27.04Z"/>
        <path class="cls-1" d="M159.1,152.24c7.93,2.51,15.09,7.16,21.59,12.26,0,0-8.8.64-8.8.64,5.66-8.03,12.25-15.32,20.12-21.28,2.69-2,5.5-3.89,8.76-5.44l.54.44c-3.38,4.46-8.48,10.86-12.02,15.31-3.58,4.49-8.57,10.82-12.2,15.17,0,0-.44.54-.44.54l-.5-.47c-5.17-4.9-12.52-11.71-17.52-16.64,0,0,.48-.51.48-.51h0Z"/>
        <g>
          <path class="cls-4" d="M22.87,109.63l-21.91-.34c-.02,1.19-.01,2.4.03,3.6l21.9-.66c-.02-.75-.03-1.5-.03-2.26,0-.11,0-.23,0-.34Z"/>
          <path class="cls-4" d="M2.05,123.61c.2,1.18.43,2.37.68,3.53l20.98-4.53c-.12-.86-.22-1.73-.31-2.6l-21.35,3.6Z"/>
          <path class="cls-4" d="M2.52,94.95c-.24,1.18-.46,2.37-.64,3.56l21.34,3.32c.07-.87.16-1.74.26-2.61l-20.95-4.28Z"/>
          <path class="cls-4" d="M5.75,137.54c.41,1.12.86,2.25,1.32,3.36l18.64-7.85c-.22-.87-.42-1.74-.62-2.62l-19.35,7.12Z"/>
          <path class="cls-4" d="M6.7,81.16c-.45,1.11-.88,2.24-1.28,3.37l19.29,6.83c.18-.88.36-1.76.56-2.64l-18.57-7.56Z"/>
          <path class="cls-4" d="M11.96,150.56c.62,1.04,1.27,2.08,1.93,3.07l15.14-10.04c-.33-.88-.66-1.76-.97-2.65l-16.11,9.62Z"/>
          <path class="cls-4" d="M13.34,68.39c-.65,1.01-1.28,2.04-1.88,3.07l16.02,9.29c.29-.9.6-1.79.91-2.68l-15.06-9.68Z"/>
          <path class="cls-4" d="M20.46,162.2c.8.9,1.62,1.8,2.45,2.65l10.96-10.61c-.47-.88-.92-1.77-1.36-2.67l-12.04,10.63Z"/>
          <path class="cls-4" d="M22.19,57.05c-.81.86-1.62,1.76-2.4,2.67l11.94,10.26c.43-.91.86-1.81,1.32-2.71l-10.85-10.22Z"/>
          <path class="cls-4" d="M30.92,172.07c.94.73,1.91,1.46,2.88,2.15l6.65-9.35c-.62-.87-1.23-1.76-1.83-2.65l-7.71,9.84Z"/>
          <path class="cls-4" d="M32.98,47.52c-.97.71-1.93,1.44-2.85,2.19l7.58,9.42c.58-.91,1.19-1.81,1.8-2.7l-6.52-8.91Z"/>
          <path class="cls-4" d="M43.02,179.86c1.06.55,2.15,1.09,3.24,1.59l2.85-6.15c-.81-.84-1.59-1.7-2.37-2.57l-3.71,7.13Z"/>
          <path class="cls-4" d="M45.37,40.12c-1.08.52-2.16,1.06-3.22,1.63l3.56,6.64c.77-.89,1.56-1.77,2.36-2.63l-2.69-5.63Z"/>
          <path class="cls-4" d="M56.36,185.3c1.15.35,2.31.67,3.47.97l.29-1.13c-1.01-.77-2.01-1.56-2.99-2.37l-.77,2.53Z"/>
          <path class="cls-4" d="M58.92,35.13c-1.15.31-2.32.64-3.46,1.01l.61,1.94c.98-.83,1.97-1.65,2.98-2.45l-.13-.49Z"/>
        </g>
      </g>
    </g>
  </g>
</svg>